<?xml version="1.0" standalone="yes"?>
<svg width="512" height="512">
<path style="fill:#ffffff; stroke:none;" d="M0 0L0 512L60 512L60 511C54.9294 506.525 56 500.266 56 494L56 457C56 427.845 49.5068 392.319 73.0394 370.171C93.1824 351.212 122.397 353.04 145.853 341.147C151.831 338.115 152.957 327.567 160 323.352C167.447 318.895 187.849 313.942 191.397 305.787C200.168 285.626 178.627 273.998 168.095 261C155.547 245.513 148.752 227.347 145 208C125.851 207.947 105.309 192.236 113.468 171C116.28 163.682 126.694 158.988 127.852 151.957C130.788 134.13 126.427 115.006 128.17 97C129.177 86.5935 134.294 78.683 136.782 69C139.139 59.8246 121.927 53.1769 127.183 43.044C131.154 35.3887 149.345 32.8289 157 29.7963C186.48 18.1174 215.331 1.02155 248 1L225 0L175 0L0 0z"/>
<path style="fill:#000000; stroke:none;" d="M145 208C147.718 229.047 156.96 248.824 170.59 265C180.577 276.853 199.037 286.207 191.397 304.895C187.834 313.61 166.801 318.677 159 323.352C151.852 327.635 151.394 338.108 144.941 341.147C121.729 352.078 92.8567 351.282 73.0394 369.289C49.8376 390.371 56 424.888 56 453L56 496C56 500.854 54.5495 508.88 60.1088 511.258C75.9167 518.02 71 482.969 71 475C71 448.032 62.3028 404.321 82.1736 383.039C88.9787 375.751 97.7758 372.397 107 369.333C118.229 365.604 129.63 362.133 141 358.859C144.897 357.737 150.604 354.524 154.7 355.272C158.29 355.929 162.083 361.88 163.592 364.91C165.697 369.138 160.639 372.309 158.015 375.001C152.526 380.631 148.221 386.872 148.054 395C147.713 411.575 163.797 434.946 172 449L151 449C151 445.353 151.827 440.404 149.972 437.109C147.338 432.43 140.057 431.969 137.742 437.189C136.233 440.594 137 445.358 137 449C128.226 449 106.308 445.046 99.4336 450.894C95.9446 453.862 97 459.936 97 464C97 475 97.0523 486.001 96.9992 497C96.9801 500.963 95.0059 507.29 98.4375 510.258C102.803 514.033 113.592 512 119 512L169 512C174.368 512 184.307 513.891 188.768 510.397C193.606 506.606 191 494.586 191 489L192 489C194.439 494.858 197.615 506.252 202.533 510.258C206.128 513.186 212.693 512.306 214.731 507.941C218.262 500.378 206.583 484.672 203.247 478L175.753 423C171.801 415.096 165.039 405.78 163.573 397C161.441 384.225 184.196 379.783 182.728 367C181.548 356.72 167.656 350.884 166.033 341.043C165.471 337.634 169.568 336.011 172 334.757C179.877 330.695 187.819 326.406 196 323C197.541 340.648 205.811 360.045 211.025 377C212.789 382.737 213.663 392.12 217.703 396.682C220.857 400.244 227.585 399.484 229.396 394.941C231.271 390.236 228.855 383.367 227 379C246.275 385.112 265.661 383.423 285 379L266.515 442L257 477L255 477C254.573 468.677 250.856 460.009 248.552 452L243.85 436C242.363 430.89 241.642 423.23 237.606 419.434C233.635 415.699 226.586 417.32 225.607 423.015C224.536 429.253 228.879 438.043 230.579 444C235.058 459.692 239.783 475.315 244.291 491C245.919 496.665 246.879 509.016 253.044 511.396C257.183 512.993 261.576 510.957 263.272 506.981C268.118 495.621 270.44 481.926 273.859 470C283.331 436.957 293.214 404.035 302.709 371C307.114 355.674 314.614 338.877 316 323C324.181 326.406 332.123 330.695 340 334.757C342.432 336.011 346.529 337.634 345.967 341.043C344.291 351.202 327.928 357.798 329.272 369C330.567 379.787 346.476 383.571 348.473 394C349.535 399.545 344.605 406.284 342.247 411L322.753 450L301.247 493C298.974 497.548 294.046 504.981 298.448 509.682C301.743 513.2 308.058 512.45 310.856 508.772C318.238 499.066 322.729 484.036 328.247 473L354.247 421C358.75 411.994 365.239 402.538 363.699 392C362.075 380.887 351.884 377.472 348.033 368.285C346.367 364.311 354.208 355.754 358.015 355.389C366.615 354.563 380.844 361.698 389 364.562C400.057 368.444 411.993 370.066 422 376.548C447.56 393.103 441 426.878 441 453L441 497C441 501.666 439.616 509.229 445.059 511.396C459.372 517.094 456 493.263 456 486L456 427C456 414.941 457.207 402.557 453.135 391C439.591 352.564 397.953 355.695 367.059 341.147C360.888 338.241 360.473 328.213 353.999 323.966C346.25 318.883 322.842 313.449 320.318 303.957C314.903 283.598 332.835 275.663 343.905 262C356.309 246.692 364.478 227.529 367 208C388.027 207.986 406.999 191.32 398.07 169C395.291 162.053 386.074 158.247 384.318 151.896C381.818 142.855 384 130.379 384 121C384 99.2741 388.567 71.5457 380.536 51C374.36 35.1978 361.097 23.1448 345 18.0286C339.479 16.2738 333.269 17.1341 328 15.1574C311.455 8.95074 298.594 0.0904236 280 0.000762939C261.515 -0.0883789 243.171 -0.271851 225 3.66205C203.181 8.38586 183.387 18.0942 163 26.8495C154.812 30.3661 146.474 33.5646 138 36.3303C134.172 37.5798 129.331 38.2669 127.179 42.1088C121.155 52.8659 138.382 59.6254 136.168 69C133.974 78.2937 129.129 86.0884 128.17 96C126.424 114.035 130.715 133.114 127.852 150.985C126.699 158.179 116.319 162.58 113.468 170C104.904 192.292 124.688 207.987 145 208z"/>
<path style="fill:#ffffff; stroke:none;" d="M287 0L287 1C301.774 1.63608 313.027 8.81012 326 14.7253C336.721 19.6136 348.238 17.9395 359 25.1049C392.158 47.1828 384 90.8026 384 125C384 133.371 381.972 144.751 384.318 152.791C386.257 159.439 395.759 163.434 398.451 171C405.962 192.103 386.477 207.946 367 208C363.248 227.347 356.453 245.513 343.905 261C333.373 273.998 311.832 285.626 320.603 305.787C324.151 313.942 344.553 318.895 352 323.352C359.043 327.567 360.169 338.115 366.147 341.147C389.603 353.04 418.818 351.212 438.961 370.171C462.493 392.32 456 427.845 456 457L456 494C456 500.266 457.071 506.525 452 511L452 512L512 512L512 0L287 0z"/>
<path style="fill:#412d22; stroke:none;" d="M250 15L250 16L254 16L250 15z"/>
<path style="fill:#8f644b; stroke:none;" d="M254 15L254 16L267 16L254 15z"/>
<path style="fill:#b67f5f; stroke:none;" d="M146 50C150.198 62.3497 165.945 70.7981 177 76.2438C210.968 92.9767 254.4 88.5047 290 79.8704C298.957 77.6981 307.959 74.4516 317 72.7924C320.249 72.1963 323.943 74.0558 326.895 72.2924C334.336 67.8473 335.995 54.6909 336 47C329.337 43.8648 327.626 37.1825 322.815 32.0903C317.262 26.2131 309.54 22.6642 302 20.0787C248.259 1.6503 194.709 31.2102 146 50z"/>
<path style="fill:#614433; stroke:none;" d="M276 15L276 16L282 16L276 15z"/>
<path style="fill:#6d4c39; stroke:none;" d="M241 16L241 17L247 17L241 16z"/>
<path style="fill:#563c2d; stroke:none;" d="M235 17L235 18L238 18L235 17z"/>
<path style="fill:#483226; stroke:none;" d="M292.667 17.3333L293.333 17.6667L292.667 17.3333z"/>
<path style="fill:#6a4a38; stroke:none;" d="M225.667 19.3333L226.333 19.6667L225.667 19.3333z"/>
<path style="fill:#cd916e; stroke:none;" d="M342 34C344.123 40.2274 342.429 44.7617 336 47C335.982 53.4125 334.625 59.2314 331.723 65C330.269 67.889 326.483 71.5802 326.917 75C327.344 78.3723 331.153 81.3886 333.076 84C337.613 90.1643 341.563 96.9631 344.573 104C348.054 112.14 350.944 121.148 351.829 130C352.373 135.435 350.409 142.971 353.179 147.891C356.096 153.073 362.98 152 368 152L368 92C368 81.3494 369.529 69.3588 366.71 59C363.556 47.4101 353.471 37.311 342 34z"/>
<path style="fill:#5c4131; stroke:none;" d="M343 37L343 41L344 41L343 37z"/>
<path style="fill:#4a3428; stroke:none;" d="M337.667 46.3333L338.333 46.6667L337.667 46.3333z"/>
<path style="fill:#785540; stroke:none;" d="M367.333 61.6667L367.667 62.3333L367.333 61.6667z"/>
<path style="fill:#9a6d52; stroke:none;" d="M368 65L368 152L369 152L369 92L368 65z"/>
<path style="fill:#4b3427; stroke:none;" d="M303.667 76.3333L304.333 76.6667L303.667 76.3333z"/>
<path style="fill:#a06e50; stroke:none;" d="M150 77C138.187 97.3165 144 129.213 144 152C163.475 152 159.993 138.709 160 123C160.004 114.392 162.822 105.779 173 110L181 94L150 77z"/>
<path style="fill:#583d2e; stroke:none;" d="M295.667 78.3333L296.333 78.6667L295.667 78.3333z"/>
<path style="fill:#4f3729; stroke:none;" d="M291.667 79.3333L292.333 79.6667L291.667 79.3333z"/>
<path style="fill:#473125; stroke:none;" d="M287.667 80.3333L288.333 80.6667L287.667 80.3333z"/>
<path style="fill:#654635; stroke:none;" d="M282 81L282 82L285 82L282 81z"/>
<path style="fill:#614433; stroke:none;" d="M271 83L271 84L274 84L271 83z"/>
<path style="fill:#5e4231; stroke:none;" d="M202.667 84.3333L203.333 84.6667L202.667 84.3333z"/>
<path style="fill:#6f4e3a; stroke:none;" d="M265 84L265 85L268 85L265 84z"/>
<path style="fill:#845c45; stroke:none;" d="M207 85L207 86L212 86L207 85z"/>
<path style="fill:#9b845b; stroke:none;" d="M316.667 88.3333L317.333 88.6667L316.667 88.3333z"/>
<path style="fill:#99825a; stroke:none;" d="M312.667 89.3333L313.333 89.6667L312.667 89.3333z"/>
<path style="fill:#f7d291; stroke:none;" d="M144 192C147.095 185.425 154.572 181.901 158.682 190.019C160.795 194.191 159.811 199.49 160.425 204C161.644 212.956 163.774 221.569 167.062 230C179.68 262.357 212.754 285.294 247 288L247 287C215.504 273.887 191.556 243.557 185.465 210C183.145 197.223 184 183.926 184 171C184 154.234 179.297 131.772 196 121.468C208.341 113.856 229.001 119 243 119C268.83 119 303.859 115.194 327 103C325.424 98.6953 322.345 91.3976 317.7 89.6427C313.085 87.8993 305.549 91.76 301 92.8704C287.868 96.0757 274.421 99.125 261 100.715C242.323 102.927 223.599 103.694 205 100.196C199.517 99.1647 185.106 92.6254 180.39 95.777C172.209 101.245 174.827 110.511 175.812 118C177.175 128.364 177.237 142.179 173.438 152C169.558 162.028 159.2 167.162 149 167.91C143.405 168.32 136.837 166.712 132.133 170.573C119.935 180.584 133.044 191.993 144 192z"/>
<path style="fill:#87724f; stroke:none;" d="M308.667 90.3333L309.333 90.6667L308.667 90.3333z"/>
<path style="fill:#493224; stroke:none;" d="M144.333 91.6667L144.667 92.3333L144.333 91.6667z"/>
<path style="fill:#b79c6b; stroke:none;" d="M305.667 91.3333L306.333 91.6667L305.667 91.3333z"/>
<path style="fill:#a58c61; stroke:none;" d="M301.667 92.3333L302.333 92.6667L301.667 92.3333z"/>
<path style="fill:#927c56; stroke:none;" d="M297.667 93.3333L298.333 93.6667L297.667 93.3333z"/>
<path style="fill:#4e432e; stroke:none;" d="M182.667 94.3333L183.333 94.6667L182.667 94.3333z"/>
<path style="fill:#6c5c40; stroke:none;" d="M288.667 95.3333L289.333 95.6667L288.667 95.3333z"/>
<path style="fill:#736244; stroke:none;" d="M283.667 96.3333L284.333 96.6667L283.667 96.3333z"/>
<path style="fill:#453a28; stroke:none;" d="M192.667 97.3333L193.333 97.6667L192.667 97.3333z"/>
<path style="fill:#7b6948; stroke:none;" d="M278.667 97.3333L279.333 97.6667L278.667 97.3333z"/>
<path style="fill:#6f5f41; stroke:none;" d="M196.667 98.3333L197.333 98.6667L196.667 98.3333z"/>
<path style="fill:#826e4c; stroke:none;" d="M273.667 98.3333L274.333 98.6667L273.667 98.3333z"/>
<path style="fill:#806d4b; stroke:none;" d="M201 99L201 100L204 100L201 99z"/>
<path style="fill:#8c7752; stroke:none;" d="M268 99L268 100L271 100L268 99z"/>
<path style="fill:#6c5c40; stroke:none;" d="M325 99L326 100L325 99z"/>
<path style="fill:#917c55; stroke:none;" d="M206.667 100.333L207.333 100.667L206.667 100.333z"/>
<path style="fill:#c4a673; stroke:none;" d="M259 100L259 101L263 101L259 100z"/>
<path style="fill:#78523c; stroke:none;" d="M143 101L143 152L144 152C144 137.689 148.508 114.127 143 101z"/>
<path style="fill:#584b34; stroke:none;" d="M216 101L216 102L221 102L216 101z"/>
<path style="fill:#5a4d35; stroke:none;" d="M248 101L248 102L251 102L248 101z"/>
<path style="fill:#ab9265; stroke:none;" d="M225 102L225 103L241 103L225 102z"/>
<path style="fill:#ffe1a0; stroke:none;" d="M368 192C377.641 191.8 388.651 185.309 382.821 174.015C378.682 165.998 369.335 168.448 362 167.91C354.651 167.371 348.123 164.393 343.105 158.985C334.58 149.797 337.04 138.294 335.826 127C334.929 118.651 331.179 110.649 328 103C299.777 110.704 271.588 119 242 119C226.481 119 203.634 112.872 191.105 124.329C179.568 134.879 184 156.917 184 171C184 210.716 189.643 246.966 223 273.335C230.003 278.87 239.09 285.683 248 287.61C285.614 295.741 329.191 266.326 343.572 233C347.026 224.994 349.772 216.656 350.999 208C351.788 202.434 350.858 195.048 353.457 190.015C357.656 181.885 364.817 185.236 368 192z"/>
<path style="fill:#736548; stroke:none;" d="M329 106L330 107L329 106z"/>
<path style="fill:#543a2a; stroke:none;" d="M169.667 108.333L170.333 108.667L169.667 108.333z"/>
<path style="fill:#322219; stroke:none;" d="M160 113L160 145L161 145L160 113z"/>
<path style="fill:#c2ab7a; stroke:none;" d="M332.333 113.667L332.667 114.333L332.333 113.667z"/>
<path style="fill:#aa9064; stroke:none;" d="M175 115L175 145L176 145L175 115z"/>
<path style="fill:#bca676; stroke:none;" d="M333.333 116.667L333.667 117.333L333.333 116.667z"/>
<path style="fill:#432f24; stroke:none;" d="M349.333 118.667L349.667 119.333L349.333 118.667z"/>
<path style="fill:#a89469; stroke:none;" d="M334.333 119.667L334.667 120.333L334.333 119.667z"/>
<path style="fill:#796b4c; stroke:none;" d="M335.333 123.667L335.667 124.333L335.333 123.667z"/>
<path style="fill:#402d22; stroke:none;" d="M351 127L351 145L352 145L351 127z"/>
<path style="fill:#756749; stroke:none;" d="M336 128L336 133L337 133L336 128z"/>
<path style="fill:#af9a6e; stroke:none;" d="M336 133L336 145L337 145L336 133z"/>
<path style="fill:#8f7e5a; stroke:none;" d="M197.667 136.333L198.333 136.667L197.667 136.333z"/>
<path style="fill:#473f2d; stroke:none;" d="M199 136L199 137L217 137L199 136M294 136L294 137L313 137L294 136z"/>
<path style="fill:#000000; stroke:none;" d="M196.148 138.028C192.023 140.47 192.212 147.365 196.228 149.821C200.574 152.478 215.759 152.456 219.852 149.397C223.853 146.405 223.917 139.613 218.941 137.603C214.417 135.776 200.383 135.52 196.148 138.028M292.148 138.028C287.514 140.772 288.757 147.616 293.059 149.972C297.376 152.337 311.544 152.406 315.772 149.821C319.788 147.365 319.977 140.47 315.852 138.028C311.687 135.562 296.313 135.562 292.148 138.028z"/>
<path style="fill:#716447; stroke:none;" d="M192 142L192 145L193 145L192 142M319 142L319 145L320 145L319 142z"/>
<path style="fill:#bba575; stroke:none;" d="M223.333 143.667L223.667 144.333L223.333 143.667M288.333 143.667L288.667 144.333L288.333 143.667z"/>
<path style="fill:#867654; stroke:none;" d="M193 147L194 148L193 147M318 147L319 148L318 147z"/>
<path style="fill:#65593f; stroke:none;" d="M221 148L222 149L221 148M290 148L291 149L290 148z"/>
<path style="fill:#726548; stroke:none;" d="M220 149L221 150L220 149M291 149L292 150L291 149z"/>
<path style="fill:#b7a173; stroke:none;" d="M199 151L199 152L217 152L199 151M295 151L295 152L313 152L295 151z"/>
<path style="fill:#322219; stroke:none;" d="M143 152L143 153L153 153L143 152z"/>
<path style="fill:#65593f; stroke:none;" d="M338 152L339 153L338 152z"/>
<path style="fill:#402d22; stroke:none;" d="M359 152L359 153L369 153L359 152z"/>
<path style="fill:#736244; stroke:none;" d="M171 156L172 157L171 156z"/>
<path style="fill:#7a6c4d; stroke:none;" d="M340 156L341 157L340 156z"/>
<path style="fill:#65593f; stroke:none;" d="M206 160L206 161L209 161L206 160z"/>
<path style="fill:#6f6246; stroke:none;" d="M302 160L302 161L306 161L302 160z"/>
<path style="fill:#000000; stroke:none;" d="M204.148 162.028C196.87 166.32 200.678 188.532 211.772 181.82C219.105 177.383 215.338 155.429 204.148 162.028M300.228 162.028C292.939 166.466 296.674 188.534 307.772 181.82C315.08 177.398 311.388 155.233 300.228 162.028z"/>
<path style="fill:#766445; stroke:none;" d="M164 163L165 164L164 163z"/>
<path style="fill:#7a6c4d; stroke:none;" d="M347 163L348 164L347 163z"/>
<path style="fill:#76684a; stroke:none;" d="M214 164L215 165L214 164M297 164L298 165L297 164z"/>
<path style="fill:#675b41; stroke:none;" d="M200 166L200 177L201 177L200 166M311 166L311 177L312 177L311 166z"/>
<path style="fill:#aa9064; stroke:none;" d="M138 167L138 168L153 168L138 167z"/>
<path style="fill:#97855f; stroke:none;" d="M215 167L215 177L216 177L215 167M296 167L296 177L297 177L296 167z"/>
<path style="fill:#af9a6e; stroke:none;" d="M358 167L358 168L373 168L358 167z"/>
<path style="fill:#706346; stroke:none;" d="M373.667 167.333L374.333 167.667L373.667 167.333z"/>
<path style="fill:#817251; stroke:none;" d="M377 168L378 169L377 168z"/>
<path style="fill:#6e5e41; stroke:none;" d="M133 169L134 170L133 169z"/>
<path style="fill:#7e6f4f; stroke:none;" d="M380 170L381 171L380 170z"/>
<path style="fill:#8a7a57; stroke:none;" d="M381 171L382 172L381 171z"/>
<path style="fill:#b4996a; stroke:none;" d="M128.333 174.667L128.667 175.333L128.333 174.667z"/>
<path style="fill:#837452; stroke:none;" d="M383 174L384 175L383 174z"/>
<path style="fill:#b7a173; stroke:none;" d="M384 176L384 182L385 182L384 176z"/>
<path style="fill:#ac9365; stroke:none;" d="M127 177L127 182L128 182L127 177z"/>
<path style="fill:#7f7050; stroke:none;" d="M201 179L202 180L201 179M310 179L311 180L310 179z"/>
<path style="fill:#94835d; stroke:none;" d="M204 182L205 183L204 182z"/>
<path style="fill:#907f5a; stroke:none;" d="M307 182L308 183L307 182z"/>
<path style="fill:#bda777; stroke:none;" d="M303.667 183.333L304.333 183.667L303.667 183.333z"/>
<path style="fill:#6d5d40; stroke:none;" d="M150 184L150 185L153 185L150 184z"/>
<path style="fill:#95835d; stroke:none;" d="M358 184L358 185L362 185L358 184z"/>
<path style="fill:#7a6848; stroke:none;" d="M155 185L156 186L155 185z"/>
<path style="fill:#907f5a; stroke:none;" d="M356 185L357 186L356 185z"/>
<path style="fill:#837452; stroke:none;" d="M382 186L383 187L382 186z"/>
<path style="fill:#8b7651; stroke:none;" d="M144 189L144 192L145 192L144 189z"/>
<path style="fill:#93825c; stroke:none;" d="M367 189L367 192L368 192L367 189z"/>
<path style="fill:#92815c; stroke:none;" d="M379 189L380 190L379 189z"/>
<path style="fill:#907b55; stroke:none;" d="M159 191L159 199L160 199L159 191z"/>
<path style="fill:#867654; stroke:none;" d="M352 191L352 197L353 197L352 191z"/>
<path style="fill:#a18e65; stroke:none;" d="M374.667 191.333L375.333 191.667L374.667 191.333z"/>
<path style="fill:#5c4e36; stroke:none;" d="M137 192L137 193L144 193L137 192z"/>
<path style="fill:#5f543c; stroke:none;" d="M368 192L368 193L372 193L368 192z"/>
<path style="fill:#423a29; stroke:none;" d="M352 197L352 202L353 202L352 197z"/>
<path style="fill:#463b29; stroke:none;" d="M159 199L159 202L160 202L159 199z"/>
<path style="fill:#a0885e; stroke:none;" d="M160.333 204.667L160.667 205.333L160.333 204.667z"/>
<path style="fill:#9f8c64; stroke:none;" d="M351 204L351 207L352 207L351 204z"/>
<path style="fill:#534731; stroke:none;" d="M160 206L160 209L161 209L160 206z"/>
<path style="fill:#6e5e41; stroke:none;" d="M161.333 211.667L161.667 212.333L161.333 211.667z"/>
<path style="fill:#706346; stroke:none;" d="M350.333 211.667L350.667 212.333L350.333 211.667z"/>
<path style="fill:#65563b; stroke:none;" d="M162.333 215.667L162.667 216.333L162.333 215.667z"/>
<path style="fill:#695d42; stroke:none;" d="M349.333 215.667L349.667 216.333L349.333 215.667z"/>
<path style="fill:#857553; stroke:none;" d="M230 216L230 217L233 217L230 216z"/>
<path style="fill:#8c7c58; stroke:none;" d="M278 216L278 217L282 217L278 216z"/>
<path style="fill:#65593f; stroke:none;" d="M228 217L229 218L228 217z"/>
<path style="fill:#000000; stroke:none;" d="M229.109 217.746C217.56 222.532 231.656 233.49 237 235.687C250.015 241.036 267.747 240.51 279.996 233.275C285.469 230.042 291.359 218.572 280.985 217.272C271.744 216.115 263.42 225.932 253 224.546C245.859 223.597 235.92 214.923 229.109 217.746z"/>
<path style="fill:#796b4c; stroke:none;" d="M235 217L236 218L235 217M276 217L277 218L276 217z"/>
<path style="fill:#65593f; stroke:none;" d="M283 217L284 218L283 217z"/>
<path style="fill:#594c34; stroke:none;" d="M163.333 219.667L163.667 220.333L163.333 219.667z"/>
<path style="fill:#8d7c58; stroke:none;" d="M238 219L239 220L238 219M273 219L274 220L273 219z"/>
<path style="fill:#60553c; stroke:none;" d="M348.333 219.667L348.667 220.333L348.333 219.667z"/>
<path style="fill:#675b41; stroke:none;" d="M225 220L226 221L225 220M286 220L287 221L286 220z"/>
<path style="fill:#8e7d59; stroke:none;" d="M224 222L224 225L225 225L224 222z"/>
<path style="fill:#877755; stroke:none;" d="M287 222L287 225L288 225L287 222z"/>
<path style="fill:#aa966b; stroke:none;" d="M247.667 223.333L248.333 223.667L247.667 223.333z"/>
<path style="fill:#695d42; stroke:none;" d="M263.667 223.333L264.333 223.667L263.667 223.333z"/>
<path style="fill:#65593f; stroke:none;" d="M252 224L252 225L259 225L252 224z"/>
<path style="fill:#7e6f4f; stroke:none;" d="M225 227L226 228L225 227M286 227L287 228L286 227z"/>
<path style="fill:#98865f; stroke:none;" d="M344 230L345 231L344 230z"/>
<path style="fill:#93825c; stroke:none;" d="M229 231L230 232L229 231z"/>
<path style="fill:#94835d; stroke:none;" d="M282 231L283 232L282 231z"/>
<path style="fill:#716447; stroke:none;" d="M234 234L235 235L234 234z"/>
<path style="fill:#706346; stroke:none;" d="M277 234L278 235L277 234z"/>
<path style="fill:#877755; stroke:none;" d="M236 235L237 236L236 235M275 235L276 236L275 235z"/>
<path style="fill:#736548; stroke:none;" d="M241.667 237.333L242.333 237.667L241.667 237.333z"/>
<path style="fill:#b39e70; stroke:none;" d="M269.667 237.333L270.333 237.667L269.667 237.333z"/>
<path style="fill:#736548; stroke:none;" d="M245.667 238.333L246.333 238.667L245.667 238.333z"/>
<path style="fill:#3e3727; stroke:none;" d="M263 238L263 239L266 239L263 238z"/>
<path style="fill:#9a8861; stroke:none;" d="M252 239L252 240L260 240L252 239z"/>
<path style="fill:#726143; stroke:none;" d="M172 240L173 241L172 240z"/>
<path style="fill:#76684a; stroke:none;" d="M339 240L340 241L339 240z"/>
<path style="fill:#6c5f44; stroke:none;" d="M336 245L337 246L336 245z"/>
<path style="fill:#736244; stroke:none;" d="M178 249L179 250L178 249z"/>
<path style="fill:#7a6c4d; stroke:none;" d="M333 249L334 250L333 249z"/>
<path style="fill:#6d5d40; stroke:none;" d="M181 253L182 254L181 253z"/>
<path style="fill:#706346; stroke:none;" d="M330 253L331 254L330 253z"/>
<path style="fill:#86724e; stroke:none;" d="M182 254L183 255L182 254z"/>
<path style="fill:#8a7a57; stroke:none;" d="M329 254L330 255L329 254z"/>
<path style="fill:#84704d; stroke:none;" d="M193 265L194 266L193 265z"/>
<path style="fill:#887855; stroke:none;" d="M318 265L319 266L318 265z"/>
<path style="fill:#69593d; stroke:none;" d="M194 266L195 267L194 266z"/>
<path style="fill:#6d6044; stroke:none;" d="M317 266L318 267L317 266z"/>
<path style="fill:#6c5b3f; stroke:none;" d="M198 269L199 270L198 269z"/>
<path style="fill:#716447; stroke:none;" d="M313 269L314 270L313 269z"/>
<path style="fill:#95835d; stroke:none;" d="M307 273L308 274L307 273z"/>
<path style="fill:#67573c; stroke:none;" d="M207 275L208 276L207 275z"/>
<path style="fill:#675b41; stroke:none;" d="M304 275L305 276L304 275z"/>
<path style="fill:#9b8961; stroke:none;" d="M298 278L299 279L298 278z"/>
<path style="fill:#91805b; stroke:none;" d="M296 279L297 280L296 279z"/>
<path style="fill:#84704d; stroke:none;" d="M217 280L218 281L217 280z"/>
<path style="fill:#887855; stroke:none;" d="M294 280L295 281L294 280z"/>
<path style="fill:#85714e; stroke:none;" d="M227.667 284.333L228.333 284.667L227.667 284.333z"/>
<path style="fill:#453d2b; stroke:none;" d="M283.667 284.333L284.333 284.667L283.667 284.333z"/>
<path style="fill:#8e7954; stroke:none;" d="M231.667 285.333L232.333 285.667L231.667 285.333z"/>
<path style="fill:#504732; stroke:none;" d="M279.667 285.333L280.333 285.667L279.667 285.333z"/>
<path style="fill:#957f58; stroke:none;" d="M235.667 286.333L236.333 286.667L235.667 286.333z"/>
<path style="fill:#9a8861; stroke:none;" d="M274 286L274 287L277 287L274 286z"/>
<path style="fill:#5f5138; stroke:none;" d="M240 287L240 288L243 288L240 287z"/>
<path style="fill:#897956; stroke:none;" d="M268.667 287.333L269.333 287.667L268.667 287.333z"/>
<path style="fill:#77694b; stroke:none;" d="M249 288L249 289L260 289L249 288z"/>
<path style="fill:#363022; stroke:none;" d="M260 288L260 289L266 289L260 288z"/>
<path style="fill:#967a51; stroke:none;" d="M207 293L207 312L208 312L207 293z"/>
<path style="fill:#f0c382; stroke:none;" d="M208 293C208 297.395 206.409 305.63 209.028 309.362C211.889 313.44 220.466 314.998 225 316.255C241.591 320.852 260.31 321.346 277 317.819C283.871 316.367 298.482 315.626 302.972 309.351C305.605 305.672 304 297.356 304 293C286.269 297.212 270.948 304.789 252 303.961C236.187 303.269 222.899 297.075 208 293z"/>
<path style="fill:#967a51; stroke:none;" d="M304 293L304 312L305 312L304 293z"/>
<path style="fill:#483a27; stroke:none;" d="M219.667 297.333L220.333 297.667L219.667 297.333z"/>
<path style="fill:#8e734d; stroke:none;" d="M291.667 297.333L292.333 297.667L291.667 297.333z"/>
<path style="fill:#ab8b5d; stroke:none;" d="M288.667 298.333L289.333 298.667L288.667 298.333z"/>
<path style="fill:#594930; stroke:none;" d="M229.667 300.333L230.333 300.667L229.667 300.333z"/>
<path style="fill:#9f8156; stroke:none;" d="M281.667 300.333L282.333 300.667L281.667 300.333z"/>
<path style="fill:#735d3e; stroke:none;" d="M234 301L234 302L237 302L234 301M275 301L275 302L278 302L275 301z"/>
<path style="fill:#937750; stroke:none;" d="M239 302L239 303L242 303L239 302M270.667 302.333L271.333 302.667L270.667 302.333z"/>
<path style="fill:#af8e5f; stroke:none;" d="M247 303L247 304L252 304L247 303z"/>
<path style="fill:#685539; stroke:none;" d="M252 303L252 304L258 304L252 303z"/>
<path style="fill:#af8e5f; stroke:none;" d="M258 303L258 304L263 304L258 303z"/>
<path style="fill:#f7d291; stroke:none;" d="M208 310C209.004 322.295 214.354 335.223 217.975 347C219.29 351.276 219.854 357.198 223.303 360.362C234.924 371.023 259.977 369.15 274 366.196C279.028 365.137 285.907 363.672 289.437 359.61C292.427 356.168 293.016 350.246 294.341 346C297.906 334.579 303.025 321.936 304 310C291.918 313.298 280.505 318.048 268 319.791C246.911 322.729 227.699 315.631 208 310z"/>
<path style="fill:#4e432e; stroke:none;" d="M208.333 314.667L208.667 315.333L208.333 314.667M303.333 314.667L303.667 315.333L303.333 314.667z"/>
<path style="fill:#443a28; stroke:none;" d="M210.333 321.667L210.667 322.333L210.333 321.667M301.333 321.667L301.667 322.333L301.333 321.667z"/>
<path style="fill:#dbd9dc; stroke:none;" d="M194 323C188.131 326.426 167.539 332.469 165.748 339.213C163.227 348.703 182.633 358.132 182.779 368C182.941 379.006 163.792 383.466 163.227 395C162.828 403.131 170.238 412.969 173.753 420L202.753 478C206.19 484.875 210.281 499.535 216.637 503.972C222.825 508.292 240.515 505 248 505L225.724 427L229.593 415.83L226 400C215.802 398.864 214.269 388.333 211.769 380C207.884 367.047 204.291 353.997 200.552 341C198.882 335.197 197.783 327.752 194 323z"/>
<path style="fill:#9a989a; stroke:none;" d="M195.333 323.667L195.667 324.333L195.333 323.667z"/>
<path style="fill:#939294; stroke:none;" d="M316 323L316 325L318 323L316 323z"/>
<path style="fill:#63543a; stroke:none;" d="M211.333 324.667L211.667 325.333L211.333 324.667M300.333 324.667L300.667 325.333L300.333 324.667z"/>
<path style="fill:#dbd9dc; stroke:none;" d="M264 505C271.485 505 289.175 508.292 295.363 503.972C301.719 499.535 305.81 484.875 309.247 478L338.247 420C341.762 412.969 349.172 403.131 348.773 395C348.208 383.466 329.059 379.006 329.221 368C329.367 358.132 348.773 348.703 346.252 339.213C344.777 333.657 328.006 327.934 323.001 325.801C320.645 324.797 317.955 323.884 316.164 326.333C313.467 330.023 313.048 336.667 311.579 341C306.913 354.759 303.383 369.021 299.421 383C294.788 399.345 290.103 415.834 284.885 432C277.183 455.862 269.59 480.557 264 505z"/>
<path style="fill:#a3a2a4; stroke:none;" d="M197.333 330.667L197.667 331.333L197.333 330.667z"/>
<path style="fill:#9c9b9d; stroke:none;" d="M314.333 330.667L314.667 331.333L314.333 330.667z"/>
<path style="fill:#584b34; stroke:none;" d="M213.333 331.667L213.667 332.333L213.333 331.667M298.333 331.667L298.667 332.333L298.333 331.667z"/>
<path style="fill:#878687; stroke:none;" d="M198.333 333.667L198.667 334.333L198.333 333.667z"/>
<path style="fill:#818081; stroke:none;" d="M313.333 333.667L313.667 334.333L313.333 333.667z"/>
<path style="fill:#a6a4a7; stroke:none;" d="M312.333 337.667L312.667 338.333L312.333 337.667z"/>
<path style="fill:#4d422d; stroke:none;" d="M215.333 338.667L215.667 339.333L215.333 338.667M296.333 338.667L296.667 339.333L296.333 338.667z"/>
<path style="fill:#535354; stroke:none;" d="M164.333 339.667L164.667 340.333L164.333 339.667M347.333 339.667L347.667 340.333L347.333 339.667z"/>
<path style="fill:#908f91; stroke:none;" d="M200.333 340.667L200.667 341.333L200.333 340.667z"/>
<path style="fill:#8a898b; stroke:none;" d="M311.333 340.667L311.667 341.333L311.333 340.667z"/>
<path style="fill:#7e7d7f; stroke:none;" d="M167 344L168 345L167 344M344 344L345 345L344 344z"/>
<path style="fill:#423827; stroke:none;" d="M217.333 345.667L217.667 346.333L217.333 345.667M294.333 345.667L294.667 346.333L294.333 345.667z"/>
<path style="fill:#99979a; stroke:none;" d="M202.333 347.667L202.667 348.333L202.333 347.667z"/>
<path style="fill:#949294; stroke:none;" d="M309.333 347.667L309.667 348.333L309.333 347.667z"/>
<path style="fill:#7e7d7f; stroke:none;" d="M170 348L171 349L170 348z"/>
<path style="fill:#615239; stroke:none;" d="M218.333 348.667L218.667 349.333L218.333 348.667M293.333 348.667L293.667 349.333L293.333 348.667z"/>
<path style="fill:#7e7d7f; stroke:none;" d="M341 348L342 349L341 348z"/>
<path style="fill:#7d7c7e; stroke:none;" d="M173 352L174 353L173 352M338 352L339 353L338 352z"/>
<path style="fill:#868586; stroke:none;" d="M155 354L156 355L155 354z"/>
<path style="fill:#a2a1a3; stroke:none;" d="M204.333 354.667L204.667 355.333L204.333 354.667z"/>
<path style="fill:#9d9c9e; stroke:none;" d="M307.333 354.667L307.667 355.333L307.333 354.667z"/>
<path style="fill:#3c3c3c; stroke:none;" d="M356.667 354.333L357.333 354.667L356.667 354.333z"/>
<path style="fill:#989798; stroke:none;" d="M151.667 355.333L152.333 355.667L151.667 355.333z"/>
<path style="fill:#edebed; stroke:none;" d="M72 505L96 505L96 466C96 460.471 95.2039 454.443 100.109 450.653C108.075 444.496 126.369 448 136 448C136.012 429.398 151.951 431.296 152 449L171 449C165.816 431.005 140.933 406.322 149.529 387C152.894 379.436 160.261 373.74 166 368C163.811 364.158 160.315 357.146 155.826 355.697C150.181 353.874 141.379 359.033 136 360.512C116.046 365.997 88.9506 370.12 77.1289 389C69.9064 400.535 72 415.026 72 428L72 505z"/>
<path style="fill:#564933; stroke:none;" d="M220.333 355.667L220.667 356.333L220.333 355.667M291.333 355.667L291.667 356.333L291.333 355.667z"/>
<path style="fill:#edebed; stroke:none;" d="M346 367L346 368C353.136 375.136 362.713 382.35 364.242 393C365.848 404.195 356.029 417.436 351.247 427C338.847 451.799 320.668 478.384 313 505L440 505L440 428C440 415.406 442.002 401.381 435.471 390C424.268 370.475 397.732 367.156 378 361.025C372.481 359.311 361.867 353.811 356.174 355.694C351.868 357.118 348.695 363.605 346 367z"/>
<path style="fill:#4f4e4f; stroke:none;" d="M359.667 355.333L360.333 355.667L359.667 355.333z"/>
<path style="fill:#abaaab; stroke:none;" d="M148.667 356.333L149.333 356.667L148.667 356.333z"/>
<path style="fill:#7d7c7e; stroke:none;" d="M176 356L177 357L176 356M335 356L336 357L335 356z"/>
<path style="fill:#626162; stroke:none;" d="M158 357L159 358L158 357z"/>
<path style="fill:#878687; stroke:none;" d="M205.333 357.667L205.667 358.333L205.333 357.667z"/>
<path style="fill:#828082; stroke:none;" d="M306.333 357.667L306.667 358.333L306.333 357.667z"/>
<path style="fill:#626162; stroke:none;" d="M353 357L354 358L353 357z"/>
<path style="fill:#3b3b3b; stroke:none;" d="M369.667 358.333L370.333 358.667L369.667 358.333z"/>
<path style="fill:#999899; stroke:none;" d="M138.667 359.333L139.333 359.667L138.667 359.333z"/>
<path style="fill:#4e4d4e; stroke:none;" d="M372.667 359.333L373.333 359.667L372.667 359.333z"/>
<path style="fill:#acaaac; stroke:none;" d="M135.667 360.333L136.333 360.667L135.667 360.333z"/>
<path style="fill:#7d7c7e; stroke:none;" d="M179 360L180 361L179 360z"/>
<path style="fill:#7f6c4a; stroke:none;" d="M222 360L223 361L222 360M289 360L290 361L289 360z"/>
<path style="fill:#7d7c7e; stroke:none;" d="M332 360L333 361L332 360z"/>
<path style="fill:#626162; stroke:none;" d="M161 361L162 362L161 361z"/>
<path style="fill:#6c5b3f; stroke:none;" d="M224 361L225 362L224 361z"/>
<path style="fill:#a7a5a7; stroke:none;" d="M305.333 361.667L305.667 362.333L305.333 361.667z"/>
<path style="fill:#626162; stroke:none;" d="M350 361L351 362L350 361z"/>
<path style="fill:#3b3b3b; stroke:none;" d="M382.667 362.333L383.333 362.667L382.667 362.333z"/>
<path style="fill:#9a999a; stroke:none;" d="M125.667 363.333L126.333 363.667L125.667 363.333z"/>
<path style="fill:#4d4c4d; stroke:none;" d="M385.667 363.333L386.333 363.667L385.667 363.333z"/>
<path style="fill:#adabad; stroke:none;" d="M122.667 364.333L123.333 364.667L122.667 364.333z"/>
<path style="fill:#8f8e90; stroke:none;" d="M207.333 364.667L207.667 365.333L207.333 364.667z"/>
<path style="fill:#b4996a; stroke:none;" d="M231.667 364.333L232.333 364.667L231.667 364.333z"/>
<path style="fill:#8b8a8c; stroke:none;" d="M304.333 364.667L304.667 365.333L304.333 364.667z"/>
<path style="fill:#626162; stroke:none;" d="M164 365L165 366L164 365z"/>
<path style="fill:#a98f63; stroke:none;" d="M234.667 365.333L235.333 365.667L234.667 365.333z"/>
<path style="fill:#626162; stroke:none;" d="M347 365L348 366L347 365z"/>
<path style="fill:#947e57; stroke:none;" d="M237.667 366.333L238.333 366.667L237.667 366.333M272.667 366.333L273.333 366.667L272.667 366.333z"/>
<path style="fill:#3b3a3b; stroke:none;" d="M395.667 366.333L396.333 366.667L395.667 366.333z"/>
<path style="fill:#9b9a9b; stroke:none;" d="M112.667 367.333L113.333 367.667L112.667 367.333z"/>
<path style="fill:#9e9d9f; stroke:none;" d="M183.333 367.667L183.667 368.333L183.333 367.667z"/>
<path style="fill:#836f4d; stroke:none;" d="M242 367L242 368L245 368L242 367M267.667 367.333L268.333 367.667L267.667 367.333z"/>
<path style="fill:#9f9da0; stroke:none;" d="M328.333 367.667L328.667 368.333L328.333 367.667z"/>
<path style="fill:#4c4c4c; stroke:none;" d="M398.667 367.333L399.333 367.667L398.667 367.333z"/>
<path style="fill:#aeacae; stroke:none;" d="M109.667 368.333L110.333 368.667L109.667 368.333z"/>
<path style="fill:#736244; stroke:none;" d="M247 368L247 369L254 369L247 368z"/>
<path style="fill:#b19768; stroke:none;" d="M254 368L254 369L258 369L254 368z"/>
<path style="fill:#64553b; stroke:none;" d="M258 368L258 369L265 369L258 368z"/>
<path style="fill:#3a393a; stroke:none;" d="M408.667 370.333L409.333 370.667L408.667 370.333z"/>
<path style="fill:#656466; stroke:none;" d="M182 371L183 372L182 371z"/>
<path style="fill:#989799; stroke:none;" d="M209.333 371.667L209.667 372.333L209.333 371.667z"/>
<path style="fill:#959395; stroke:none;" d="M302.333 371.667L302.667 372.333L302.333 371.667z"/>
<path style="fill:#666567; stroke:none;" d="M329 371L330 372L329 371z"/>
<path style="fill:#454445; stroke:none;" d="M411.667 371.333L412.333 371.667L411.667 371.333z"/>
<path style="fill:#7c7b7c; stroke:none;" d="M97 372L98 373L97 372z"/>
<path style="fill:#777677; stroke:none;" d="M414 372L415 373L414 372z"/>
<path style="fill:#7a797a; stroke:none;" d="M89 376L90 377L89 376M422 376L423 377L422 376z"/>
<path style="fill:#a1a0a2; stroke:none;" d="M211.333 378.667L211.667 379.333L211.333 378.667z"/>
<path style="fill:#9e9d9f; stroke:none;" d="M300.333 378.667L300.667 379.333L300.333 378.667z"/>
<path style="fill:#787778; stroke:none;" d="M85 379L86 380L85 379z"/>
<path style="fill:#8cb4eb; stroke:none;" d="M227 379L230 396C241.408 400.252 268.028 405.069 278.49 396.146C282.246 392.942 283.317 384.644 284 380L259 383.961L227 379z"/>
<path style="fill:#6582aa; stroke:none;" d="M282 379L282 380L285 380L282 379z"/>
<path style="fill:#787778; stroke:none;" d="M426 379L427 380L426 379z"/>
<path style="fill:#575757; stroke:none;" d="M152 381L153 382L152 381z"/>
<path style="fill:#868587; stroke:none;" d="M212.333 381.667L212.667 382.333L212.333 381.667z"/>
<path style="fill:#4b617e; stroke:none;" d="M235 381L235 382L238 382L235 381z"/>
<path style="fill:#485c79; stroke:none;" d="M274.667 381.333L275.333 381.667L274.667 381.333z"/>
<path style="fill:#838183; stroke:none;" d="M299.333 381.667L299.667 382.333L299.333 381.667z"/>
<path style="fill:#575757; stroke:none;" d="M359 381L360 382L359 381z"/>
<path style="fill:#1f2834; stroke:none;" d="M240 382L240 383L244 383L240 382z"/>
<path style="fill:#313f52; stroke:none;" d="M268 382L268 383L271 383L268 382z"/>
<path style="fill:#8f8e8f; stroke:none;" d="M81 383L82 384L81 383z"/>
<path style="fill:#4a5f7b; stroke:none;" d="M246 383L246 384L251 384L246 383z"/>
<path style="fill:#263140; stroke:none;" d="M251 383L251 384L264 384L251 383z"/>
<path style="fill:#929192; stroke:none;" d="M430 383L431 384L430 383z"/>
<path style="fill:#707070; stroke:none;" d="M80 384L81 385L80 384z"/>
<path style="fill:#747374; stroke:none;" d="M150 384L151 385L150 384M361 384L362 385L361 384z"/>
<path style="fill:#757475; stroke:none;" d="M431 384L432 385L431 384z"/>
<path style="fill:#a7a6a8; stroke:none;" d="M298.333 385.667L298.667 386.333L298.333 385.667z"/>
<path style="fill:#585858; stroke:none;" d="M432 385L433 386L432 385z"/>
<path style="fill:#8d8c8d; stroke:none;" d="M149 386L150 387L149 386z"/>
<path style="fill:#293545; stroke:none;" d="M229.333 386.667L229.667 387.333L229.333 386.667z"/>
<path style="fill:#2e3b4c; stroke:none;" d="M282.333 386.667L282.667 387.333L282.333 386.667z"/>
<path style="fill:#8d8c8d; stroke:none;" d="M362 386L363 387L362 386z"/>
<path style="fill:#5d5c5d; stroke:none;" d="M77 388L78 389L77 388z"/>
<path style="fill:#8f8d8f; stroke:none;" d="M214.333 388.667L214.667 389.333L214.333 388.667z"/>
<path style="fill:#8c8b8d; stroke:none;" d="M297.333 388.667L297.667 389.333L297.333 388.667z"/>
<path style="fill:#626162; stroke:none;" d="M434 388L435 389L434 388z"/>
<path style="fill:#515051; stroke:none;" d="M148.333 389.667L148.667 390.333L148.333 389.667z"/>
<path style="fill:#3a4a61; stroke:none;" d="M230 389L230 394L231 394L230 389z"/>
<path style="fill:#515051; stroke:none;" d="M363.333 389.667L363.667 390.333L363.333 389.667z"/>
<path style="fill:#717072; stroke:none;" d="M164 390L165 391L164 390z"/>
<path style="fill:#747374; stroke:none;" d="M347 390L348 391L347 390z"/>
<path style="fill:#c2c1c2; stroke:none;" d="M147 393L147 397L148 397L147 393z"/>
<path style="fill:#283342; stroke:none;" d="M280.333 393.667L280.667 394.333L280.333 393.667z"/>
<path style="fill:#c2c1c2; stroke:none;" d="M364 393L364 397L365 397L364 393z"/>
<path style="fill:#838283; stroke:none;" d="M74 394L75 395L74 394M437 394L438 395L437 394z"/>
<path style="fill:#959496; stroke:none;" d="M295.333 395.667L295.667 396.333L295.333 395.667z"/>
<path style="fill:#5d5c5d; stroke:none;" d="M73 396L74 397L73 396z"/>
<path style="fill:#a5cdff; stroke:none;" d="M230 417C239.11 418.015 240.788 425.326 243 433C246.749 446.01 248.954 463.466 256 475L265.424 445L279 397C266.14 398.732 254.085 401.663 241 398.996C237.163 398.214 230.414 394.508 227.448 398.576C224.254 402.958 229.285 412.139 230 417z"/>
<path style="fill:#435468; stroke:none;" d="M279.333 396.667L279.667 397.333L279.333 396.667z"/>
<path style="fill:#5d5c5d; stroke:none;" d="M438 396L439 397L438 396z"/>
<path style="fill:#586d88; stroke:none;" d="M228 397L229 398L228 397z"/>
<path style="fill:#818081; stroke:none;" d="M72.3333 399.667L72.6667 400.333L72.3333 399.667z"/>
<path style="fill:#4d4d4e; stroke:none;" d="M221 399L221 400L226 400L221 399z"/>
<path style="fill:#858485; stroke:none;" d="M439.333 399.667L439.667 400.333L439.333 399.667z"/>
<path style="fill:#939293; stroke:none;" d="M148.333 400.667L148.667 401.333L148.333 400.667z"/>
<path style="fill:#908f90; stroke:none;" d="M363.333 400.667L363.667 401.333L363.333 400.667z"/>
<path style="fill:#9f9da0; stroke:none;" d="M293.333 402.667L293.667 403.333L293.333 402.667z"/>
<path style="fill:#5f5e5f; stroke:none;" d="M71 403L71 406L72 406L71 403z"/>
<path style="fill:#3c4b5d; stroke:none;" d="M277.333 403.667L277.667 404.333L277.333 403.667z"/>
<path style="fill:#8a888a; stroke:none;" d="M440 403L440 407L441 407L440 403z"/>
<path style="fill:#838284; stroke:none;" d="M292.333 405.667L292.667 406.333L292.333 405.667z"/>
<path style="fill:#cfcecf; stroke:none;" d="M71 406L71 505L72 505L72 436L71 406z"/>
<path style="fill:#7a797a; stroke:none;" d="M150 406L151 407L150 406M361 406L362 407L361 406z"/>
<path style="fill:#cfcecf; stroke:none;" d="M440 407L440 505L441 505L441 437L440 407z"/>
<path style="fill:#7a797a; stroke:none;" d="M151 408L152 409L151 408M360 408L361 409L360 408M152 410L153 411L152 410z"/>
<path style="fill:#354252; stroke:none;" d="M275.333 410.667L275.667 411.333L275.333 410.667z"/>
<path style="fill:#7a797a; stroke:none;" d="M359 410L360 411L359 410M153 412L154 413L153 412z"/>
<path style="fill:#8d8c8d; stroke:none;" d="M290.333 412.667L290.667 413.333L290.333 412.667z"/>
<path style="fill:#7a797a; stroke:none;" d="M358 412L359 413L358 412M154 414L155 415L154 414M357 414L358 415L357 414M155 416L156 417L155 416M356 416L357 417L356 416z"/>
<path style="fill:#2e3947; stroke:none;" d="M273.333 417.667L273.667 418.333L273.333 417.667z"/>
<path style="fill:#7a797a; stroke:none;" d="M156 418L157 419L156 418M355 418L356 419L355 418z"/>
<path style="fill:#969597; stroke:none;" d="M288.333 419.667L288.667 420.333L288.333 419.667z"/>
<path style="fill:#7a797a; stroke:none;" d="M157 420L158 421L157 420z"/>
<path style="fill:#435367; stroke:none;" d="M272.333 420.667L272.667 421.333L272.333 420.667z"/>
<path style="fill:#7a797a; stroke:none;" d="M354 420L355 421L354 420z"/>
<path style="fill:#5d7490; stroke:none;" d="M239 421L240 422L239 421z"/>
<path style="fill:#7a797a; stroke:none;" d="M158 422L159 423L158 422M353 422L354 423L353 422M159 424L160 425L159 424M352 424L353 425L352 424z"/>
<path style="fill:#636263; stroke:none;" d="M225.333 425.667L225.667 426.333L225.333 425.667z"/>
<path style="fill:#7a797a; stroke:none;" d="M160 426L161 427L160 426z"/>
<path style="fill:#a09ea0; stroke:none;" d="M286.333 426.667L286.667 427.333L286.333 426.667z"/>
<path style="fill:#7a797a; stroke:none;" d="M351 426L352 427L351 426z"/>
<path style="fill:#3a485a; stroke:none;" d="M241.333 427.667L241.667 428.333L241.333 427.667z"/>
<path style="fill:#3c4a5c; stroke:none;" d="M270.333 427.667L270.667 428.333L270.333 427.667z"/>
<path style="fill:#7a797a; stroke:none;" d="M161 428L162 429L161 428M350 428L351 429L350 428z"/>
<path style="fill:#838284; stroke:none;" d="M226.333 429.667L226.667 430.333L226.333 429.667z"/>
<path style="fill:#858486; stroke:none;" d="M285.333 429.667L285.667 430.333L285.333 429.667z"/>
<path style="fill:#7a797a; stroke:none;" d="M162 430L163 431L162 430M349 430L350 431L349 430M163 432L164 433L163 432M348 432L349 433L348 432z"/>
<path style="fill:#6b6a6b; stroke:none;" d="M146 433L147 434L146 433z"/>
<path style="fill:#383738; stroke:none;" d="M385.667 433.333L386.333 433.667L385.667 433.333z"/>
<path style="fill:#000000; stroke:none;" d="M381 453C376.085 453 369.545 451.926 365.059 454.318C360.02 457.004 360.136 463.957 365.109 466.682C369.529 469.104 376.134 468 381 468C381 472.71 379.748 479.643 382.179 483.867C384.753 488.337 391.976 488.815 394.258 483.786C396.227 479.445 395 472.683 395 468C400.156 468 407.128 469.137 411.772 466.427C415.975 463.975 415.958 456.809 411.772 454.318C407.34 451.68 399.962 453 395 453C395 448.172 396.435 440.495 393.821 436.228C391.128 431.833 384.393 433.024 382.028 437.133C379.663 441.242 381 448.4 381 453z"/>
<path style="fill:#575757; stroke:none;" d="M139 434L140 435L139 434z"/>
<path style="fill:#7a797a; stroke:none;" d="M164 434L165 435L164 434z"/>
<path style="fill:#344050; stroke:none;" d="M243.333 434.667L243.667 435.333L243.333 434.667z"/>
<path style="fill:#344151; stroke:none;" d="M268.333 434.667L268.667 435.333L268.333 434.667z"/>
<path style="fill:#7a797a; stroke:none;" d="M347 434L348 435L347 434z"/>
<path style="fill:#929192; stroke:none;" d="M149 435L150 436L149 435z"/>
<path style="fill:#787778; stroke:none;" d="M137 436L138 437L137 436z"/>
<path style="fill:#7a797a; stroke:none;" d="M165 436L166 437L165 436z"/>
<path style="fill:#8d8c8d; stroke:none;" d="M228.333 436.667L228.667 437.333L228.333 436.667z"/>
<path style="fill:#8e8c8e; stroke:none;" d="M283.333 436.667L283.667 437.333L283.333 436.667z"/>
<path style="fill:#7a797a; stroke:none;" d="M346 436L347 437L346 436z"/>
<path style="fill:#6c6b6c; stroke:none;" d="M394 436L395 437L394 436z"/>
<path style="fill:#424142; stroke:none;" d="M136 438L136 449L137 449L136 438z"/>
<path style="fill:#7a797a; stroke:none;" d="M166 438L167 439L166 438M345 438L346 439L345 438z"/>
<path style="fill:#333333; stroke:none;" d="M395 438L395 453L396 453L395 438z"/>
<path style="fill:#aaa9aa; stroke:none;" d="M151 440L151 449L152 449L151 440z"/>
<path style="fill:#7a797a; stroke:none;" d="M167 440L168 441L167 440M344 440L345 441L344 440z"/>
<path style="fill:#b9b7b9; stroke:none;" d="M380 440L380 453L381 453L380 440z"/>
<path style="fill:#2d3745; stroke:none;" d="M245.333 441.667L245.667 442.333L245.333 441.667z"/>
<path style="fill:#2d3846; stroke:none;" d="M266.333 441.667L266.667 442.333L266.333 441.667z"/>
<path style="fill:#7a797a; stroke:none;" d="M168 442L169 443L168 442M343 442L344 443L343 442z"/>
<path style="fill:#979698; stroke:none;" d="M230.333 443.667L230.667 444.333L230.333 443.667M281.333 443.667L281.667 444.333L281.333 443.667z"/>
<path style="fill:#7a797a; stroke:none;" d="M169 444L170 445L169 444z"/>
<path style="fill:#415165; stroke:none;" d="M246.333 444.667L246.667 445.333L246.333 444.667z"/>
<path style="fill:#425266; stroke:none;" d="M265.333 444.667L265.667 445.333L265.333 444.667z"/>
<path style="fill:#7a797a; stroke:none;" d="M342 444L343 445L342 444M170 446L171 447L170 446M341 446L342 447L341 446z"/>
<path style="fill:#d7d5d7; stroke:none;" d="M103 448L103 449L136 449L103 448z"/>
<path style="fill:#6a696a; stroke:none;" d="M171 448L172 449L171 448z"/>
<path style="fill:#7a797a; stroke:none;" d="M340 448L341 449L340 448z"/>
<path style="fill:#565556; stroke:none;" d="M99 450L100 451L99 450z"/>
<path style="fill:#a19fa1; stroke:none;" d="M232.333 450.667L232.667 451.333L232.333 450.667M279.333 450.667L279.667 451.333L279.333 450.667z"/>
<path style="fill:#7a797a; stroke:none;" d="M339 450L340 451L339 450z"/>
<path style="fill:#3a485a; stroke:none;" d="M248.333 451.667L248.667 452.333L248.333 451.667z"/>
<path style="fill:#3b495b; stroke:none;" d="M263.333 451.667L263.667 452.333L263.333 451.667z"/>
<path style="fill:#696869; stroke:none;" d="M97 452L98 453L97 452z"/>
<path style="fill:#7a797a; stroke:none;" d="M338 452L339 453L338 452z"/>
<path style="fill:#858486; stroke:none;" d="M233.333 453.667L233.667 454.333L233.333 453.667z"/>
<path style="fill:#868587; stroke:none;" d="M278.333 453.667L278.667 454.333L278.333 453.667z"/>
<path style="fill:#3c3c3c; stroke:none;" d="M365.667 453.333L366.333 453.667L365.667 453.333z"/>
<path style="fill:#a5a4a5; stroke:none;" d="M410.667 453.333L411.333 453.667L410.667 453.333z"/>
<path style="fill:#2c2b2c; stroke:none;" d="M96 454L96 505L97 505C97 490.689 101.508 467.127 96 454z"/>
<path style="fill:#7a797a; stroke:none;" d="M337 454L338 455L337 454M336 456L337 457L336 456z"/>
<path style="fill:#696869; stroke:none;" d="M414 456L415 457L414 456z"/>
<path style="fill:#344050; stroke:none;" d="M250.333 458.667L250.667 459.333L250.333 458.667z"/>
<path style="fill:#344151; stroke:none;" d="M261.333 458.667L261.667 459.333L261.333 458.667z"/>
<path style="fill:#7a797a; stroke:none;" d="M335 458L336 459L335 458z"/>
<path style="fill:#585858; stroke:none;" d="M415 458L415 463L416 463L415 458z"/>
<path style="fill:#8f8d8f; stroke:none;" d="M235.333 460.667L235.667 461.333L235.333 460.667z"/>
<path style="fill:#8f8e90; stroke:none;" d="M276.333 460.667L276.667 461.333L276.333 460.667z"/>
<path style="fill:#7a797a; stroke:none;" d="M334 460L335 461L334 460M333 462L334 463L333 462z"/>
<path style="fill:#6a696a; stroke:none;" d="M361 463L362 464L361 463z"/>
<path style="fill:#86a6cf; stroke:none;" d="M111 464L111 497L112 497L111 464z"/>
<path style="fill:#a5cdff; stroke:none;" d="M112 464L112 497L176 497L176 464L151 464C148.254 473.693 139.343 472.55 136 464L112 464z"/>
<path style="fill:#536780; stroke:none;" d="M136 464L136 467L137 467L136 464z"/>
<path style="fill:#384657; stroke:none;" d="M176 464L176 497L177 497L176 464z"/>
<path style="fill:#7a797a; stroke:none;" d="M332 464L333 465L332 464z"/>
<path style="fill:#848384; stroke:none;" d="M414 464L415 465L414 464z"/>
<path style="fill:#2d3745; stroke:none;" d="M252.333 465.667L252.667 466.333L252.333 465.667z"/>
<path style="fill:#2d3846; stroke:none;" d="M259.333 465.667L259.667 466.333L259.333 465.667z"/>
<path style="fill:#7a797a; stroke:none;" d="M331 466L332 467L331 466z"/>
<path style="fill:#7f7e7f; stroke:none;" d="M412 466L413 467L412 466z"/>
<path style="fill:#495b71; stroke:none;" d="M150 467L151 468L150 467z"/>
<path style="fill:#989799; stroke:none;" d="M237.333 467.667L237.667 468.333L237.333 467.667z"/>
<path style="fill:#99979a; stroke:none;" d="M274.333 467.667L274.667 468.333L274.333 467.667z"/>
<path style="fill:#696869; stroke:none;" d="M365.667 467.333L366.333 467.667L365.667 467.333z"/>
<path style="fill:#807f80; stroke:none;" d="M409.667 467.333L410.333 467.667L409.667 467.333z"/>
<path style="fill:#415165; stroke:none;" d="M253.333 468.667L253.667 469.333L253.333 468.667M258.333 468.667L258.667 469.333L258.333 468.667z"/>
<path style="fill:#7a797a; stroke:none;" d="M330 468L331 469L330 468z"/>
<path style="fill:#b9b7b9; stroke:none;" d="M380 468L380 481L381 481L380 468z"/>
<path style="fill:#333333; stroke:none;" d="M395 468L395 481L396 481L395 468z"/>
<path style="fill:#5f7693; stroke:none;" d="M139 470L140 471L139 470z"/>
<path style="fill:#7a797a; stroke:none;" d="M329 470L330 471L329 470z"/>
<path style="fill:#262f3b; stroke:none;" d="M141 471L141 472L146 472L141 471z"/>
<path style="fill:#7a797a; stroke:none;" d="M328 472L329 473L328 472z"/>
<path style="fill:#a1a0a2; stroke:none;" d="M239.333 474.667L239.667 475.333L239.333 474.667M272.333 474.667L272.667 475.333L272.333 474.667z"/>
<path style="fill:#7a797a; stroke:none;" d="M327 474L328 475L327 474z"/>
<path style="fill:#6b85a5; stroke:none;" d="M255.667 475.333L256.333 475.667L255.667 475.333z"/>
<path style="fill:#3b495b; stroke:none;" d="M255.667 476.333L256.333 476.667L255.667 476.333z"/>
<path style="fill:#7a797a; stroke:none;" d="M326 476L327 477L326 476z"/>
<path style="fill:#868587; stroke:none;" d="M240.333 477.667L240.667 478.333L240.333 477.667z"/>
<path style="fill:#878687; stroke:none;" d="M271.333 477.667L271.667 478.333L271.333 477.667z"/>
<path style="fill:#7a797a; stroke:none;" d="M325 478L326 479L325 478M324 480L325 481L324 480z"/>
<path style="fill:#979597; stroke:none;" d="M395.333 481.667L395.667 482.333L395.333 481.667z"/>
<path style="fill:#7a797a; stroke:none;" d="M323 482L324 483L323 482z"/>
<path style="fill:#6e6d6e; stroke:none;" d="M381 483L382 484L381 483z"/>
<path style="fill:#8f8e90; stroke:none;" d="M242.333 484.667L242.667 485.333L242.333 484.667z"/>
<path style="fill:#908f91; stroke:none;" d="M269.333 484.667L269.667 485.333L269.333 484.667z"/>
<path style="fill:#7a797a; stroke:none;" d="M322 484L323 485L322 484z"/>
<path style="fill:#8a898a; stroke:none;" d="M394 484L395 485L394 484z"/>
<path style="fill:#7a797a; stroke:none;" d="M321 486L322 487L321 486z"/>
<path style="fill:#7c7b7c; stroke:none;" d="M392 486L393 487L392 486z"/>
<path style="fill:#605f60; stroke:none;" d="M385.667 487.333L386.333 487.667L385.667 487.333z"/>
<path style="fill:#7a797a; stroke:none;" d="M320 488L321 489L320 488z"/>
<path style="fill:#9b9a9b; stroke:none;" d="M191 489L191 505L192 505L191 489z"/>
<path style="fill:#7a797a; stroke:none;" d="M319 490L320 491L319 490z"/>
<path style="fill:#ffffff; stroke:none;" d="M192 491C192 499.025 192.19 504.935 188 512L204 512L204 511L192 491z"/>
<path style="fill:#99979a; stroke:none;" d="M244.333 491.667L244.667 492.333L244.333 491.667z"/>
<path style="fill:#9a989a; stroke:none;" d="M267.333 491.667L267.667 492.333L267.333 491.667z"/>
<path style="fill:#777677; stroke:none;" d="M193 492L194 493L193 492z"/>
<path style="fill:#7a797a; stroke:none;" d="M318 492L319 493L318 492z"/>
<path style="fill:#787778; stroke:none;" d="M194 494L195 495L194 494z"/>
<path style="fill:#7a797a; stroke:none;" d="M317 494L318 495L317 494z"/>
<path style="fill:#787778; stroke:none;" d="M195 496L196 497L195 496z"/>
<path style="fill:#7a797a; stroke:none;" d="M316 496L317 497L316 496z"/>
<path style="fill:#797879; stroke:none;" d="M196 498L197 499L196 498z"/>
<path style="fill:#a2a1a3; stroke:none;" d="M246.333 498.667L246.667 499.333L246.333 498.667z"/>
<path style="fill:#a3a2a4; stroke:none;" d="M265.333 498.667L265.667 499.333L265.333 498.667z"/>
<path style="fill:#7a797a; stroke:none;" d="M315 498L316 499L315 498z"/>
<path style="fill:#797879; stroke:none;" d="M197 500L198 501L197 500z"/>
<path style="fill:#7a797a; stroke:none;" d="M314 500L315 501L314 500z"/>
<path style="fill:#888688; stroke:none;" d="M247.333 501.667L247.667 502.333L247.333 501.667M264.333 501.667L264.667 502.333L264.333 501.667z"/>
<path style="fill:#797879; stroke:none;" d="M198 502L199 503L198 502z"/>
<path style="fill:#7a797a; stroke:none;" d="M313 502L314 503L313 502z"/>
<path style="fill:#838386; stroke:none;" d="M215.333 503.667L215.667 504.333L215.333 503.667z"/>
<path style="fill:#8a8a8d; stroke:none;" d="M296.333 503.667L296.667 504.333L296.333 503.667z"/>
<path style="fill:#ffffff; stroke:none;" d="M71 505L68 512L100 512L100 511L96 505L71 505M212 512L252 512C245.281 501.023 218.719 501.023 212 512M260 512L300 512C293.281 501.023 266.719 501.023 260 512M308 511L308 512L444 512L441 505L347 505C333.545 505 318.31 501.743 308 511z"/>
</svg>
