<?xml version="1.0" standalone="yes"?>
<svg width="256" height="256">
<path style="fill:#000000; stroke:none;" d="M0 0L0 256L256 256L256 0L0 0z"/>
<path style="fill:#6e83b7; stroke:none;" d="M94 47L98 47L98 55L99 55L109 38C121.958 40.4057 133.709 38.0061 146 34L157 55L158 55L158 47L162 47C162 36.6678 165.374 20.7003 152 18C150.369 -0.108246 121.938 -2.66238 108.001 3.00926C103.767 4.73233 95.6768 11.1515 92.4336 14.4329C86.6887 20.2456 92.3813 26.9989 93.6975 33C94.6641 37.4069 94 42.5033 94 47z"/>
<path style="fill:#ffd3b3; stroke:none;" d="M109 38L99 55L98 55L98 47C84.7504 45.7545 86.9037 66.1605 98 67C98.1083 106.248 157.892 106.124 158 67C169.096 66.1606 171.25 45.7545 158 47L158 55L157 55L146 34C132.941 37.0227 122.6 39.7188 109 38z"/>
<path style="fill:#6e83b7; stroke:none;" d="M108 50L108 51C113.017 51.0138 119.739 53.5037 123 49L108 50M132 49L133 52L147 51C142.74 47.325 137.204 47.4617 132 49z"/>
<path style="fill:#beafb5; stroke:none;" d="M145 51L145 52L149 52L145 51z"/>
<path style="fill:#6e83b7; stroke:none;" d="M115.603 58.0818C113.132 59.8717 115.918 63.713 118.397 61.9182C120.868 60.1283 118.082 56.287 115.603 58.0818M137.603 58.0818C135.132 59.8717 137.918 63.713 140.397 61.9182C142.868 60.1284 140.082 56.2869 137.603 58.0818z"/>
<path style="fill:#fcb98b; stroke:none;" d="M124 75L131 75L128 72L128 66C123.613 67.4559 124.015 70.8496 124 75M124 82L124 85L137 82L137 80L136 79L124 82M114 94C115.677 104.275 140.357 103.871 142 94C131.116 96.518 124.854 96.9614 114 94z"/>
<path style="fill:#ffd3b3; stroke:none;" d="M114 98C114.074 104.308 120.383 116.793 128 116.793C135.617 116.793 141.926 104.308 142 98C131.859 100.856 124.036 101.741 114 98z"/>
<path style="fill:#edeff1; stroke:none;" d="M113 104C100.028 114.304 109.327 119.013 116 131L118 131C125.604 118.68 130.396 118.68 138 131L140 131C146.673 119.013 155.972 114.304 143 104L142 104L128 115.944L113 104z"/>
<path style="fill:#6e83b7; stroke:none;" d="M97 229L80 232L80 254L126 254L126 225L107.004 224.683L95 220L90 195C104.39 189.782 98.0749 172.059 100.298 161C101.392 155.555 104.194 145.376 101.883 140C100.104 135.863 95.5644 132.511 92 130L92 129L104 112C92.2793 113.58 74.9819 118.273 66.0934 126.326C50.8343 140.15 41.4158 167.172 31.2809 185C23.9607 197.877 9.37358 215.993 23.3287 229.66C35.0635 241.152 64.1786 230.801 78 227.08C84.0948 225.439 95.5093 219.679 97 229M152 112L164 129L164 130C150.306 139.646 154.813 148.835 155.942 163C156.86 174.517 156 186.445 156 198C156 205.175 158.724 218.707 151.941 223.397C146.695 227.025 136.137 225 130 225L130 254L169 254L169 178L172 178L172 254L195 254L195 165C195 154.752 198.209 137.923 192.437 129.04C185.676 118.637 163.698 113.577 152 112z"/>
<path style="fill:#00ffff; stroke:none;" d="M155 112L156 113L155 112z"/>
<path style="fill:#859cc1; stroke:none;" d="M103 113L92 129L92 130C95.1692 133.169 100.089 136.694 101.683 141C102.904 144.299 100.733 147.612 101.407 150.927C102.415 155.881 110.312 154.002 114 154C117.685 141.325 107.864 125.492 105 113L103 113M151 113C148.136 125.491 138.315 141.325 142 154C145.688 154.002 153.585 155.881 154.593 150.927C155.267 147.612 153.096 144.299 154.317 141C155.911 136.694 160.831 133.169 164 130L164 129L153 113L151 113z"/>
<path style="fill:#d3d3d3; stroke:none;" d="M106 116L107 123L116 134L118 134L119 129L116 131L106 116M149 116L140 131L137 129L138 134L140 134L149 123L149 116z"/>
<path style="fill:#00ffff; stroke:none;" d="M78 119L79 120L78 119z"/>
<path style="fill:#80d6fb; stroke:none;" d="M126.093 120.086C117.463 123.992 122.105 135.749 130.955 132.254C138.71 129.192 132.484 117.194 126.093 120.086z"/>
<path style="fill:#edeff1; stroke:none;" d="M108 122L115 148L123 148C123.058 141.052 125.236 135.751 119 131L118 134L116 134L108 122M147 122L140 134L138 134L137 131C131.11 135.487 132 141.203 132 148L141 148L147 122z"/>
<path style="fill:#00ffff; stroke:none;" d="M190 126L191 127L190 126z"/>
<path style="fill:#46bee8; stroke:none;" d="M119 128L125 140L126 140L127 136L129 136L130 140L131 140L137 128C128.563 132.581 127.437 132.581 119 128z"/>
<path style="fill:#466089; stroke:none;" d="M76 133L80 196L83 196C83 180.681 83.3615 165.314 82.9853 150C82.8314 143.732 81.989 136.133 76 133z"/>
<path style="fill:#00ffff; stroke:none;" d="M59 135L60 136L59 135z"/>
<path style="fill:#80d6fb; stroke:none;" d="M124 136L123 148L132 148L132 136L131 136L131 140L130 140L129 136L127 136L126 140L125 140L124 136z"/>
<path style="fill:#d3d3d3; stroke:none;" d="M116 148L116 150L123 150L123 148L116 148z"/>
<path style="fill:#46bee8; stroke:none;" d="M123 148L123 150L133 150L133 148L123 148z"/>
<path style="fill:#d3d3d3; stroke:none;" d="M133 148L133 150L140 150L140 148L133 148z"/>
<path style="fill:#edeff1; stroke:none;" d="M114 160L142 160C141.998 157.374 142.746 152.888 140.397 151.028C137.257 148.541 117.569 148.398 115.028 151.603C113.379 153.683 114.002 157.528 114 160z"/>
<path style="fill:#5a71a0; stroke:none;" d="M83 152L83 196L84 196C84 183.52 87.8102 163.463 83 152z"/>
<path style="fill:#b7a09b; stroke:none;" d="M104 154L104 155L114 155L104 154M142 154L142 155L152 155L142 154z"/>
<path style="fill:#efa470; stroke:none;" d="M101 193C106.085 192.958 114.351 189.779 118.941 192.067C126.15 195.661 126.311 213.378 120.566 218.258C116.252 221.922 106.342 220.999 101 221C106 226.106 116.285 224 123 224C129.201 224 150.246 227.266 153.972 221.682C156.331 218.148 155 211.065 155 207L155 172C155 167.935 156.331 160.852 153.972 157.318C151.679 153.882 145.538 155 142 155L142 160L114 160L114 155L102.603 156.603L101 167L101 193z"/>
<path style="fill:#d3d3d3; stroke:none;" d="M118 155L118 157L138 157L138 155L118 155z"/>
<path style="fill:#00ffff; stroke:none;" d="M46 158L47 159L46 158z"/>
<path style="fill:#af9393; stroke:none;" d="M100 158L100 186L101 186L100 158M155 158L155 221L156 221L156 178L155 158z"/>
<path style="fill:#000000; stroke:none;" d="M79 172L62 200C66.4559 199.4 74.8749 198.764 78.3966 195.836C82.1822 192.688 80.7389 176.144 79 172z"/>
<path style="fill:#466089; stroke:none;" d="M169 178L169 254L172 254L172 178L169 178z"/>
<path style="fill:#00ffff; stroke:none;" d="M33 181L34 182L33 181z"/>
<path style="fill:#ffd3b3; stroke:none;" d="M90 195L95 220C102.232 220.311 114.056 223.306 120.566 218.821C126.53 214.712 126.274 195.715 119.853 192.032C115.105 189.308 106.291 192.891 101 193L101 186L90 195z"/>
<path style="fill:#466089; stroke:none;" d="M51 195L51 199L58 199C54.2986 202.263 50.5044 204.732 51 210L62 198L51 195z"/>
<path style="fill:#00ffff; stroke:none;" d="M20 204L21 205L20 204z"/>
<path style="fill:#466089; stroke:none;" d="M80 232L97 229C96.2285 219.099 80.2848 223.434 80 232z"/>
<path style="fill:#b29491; stroke:none;" d="M104 224L104 225L127 225L104 224z"/>
<path style="fill:#5a71a0; stroke:none;" d="M126 254L130 254L130 224C122.548 226.473 126 247.182 126 254z"/>
<path style="fill:#b29491; stroke:none;" d="M130 224L130 225L152 225L130 224z"/>
<path style="fill:#466089; stroke:none;" d="M127 225L127 253L129 253L129 225L127 225z"/>
<path style="fill:#00ffff; stroke:none;" d="M29 233L30 234L29 233M40 234L41 235L40 234z"/>
</svg>
