<?xml version="1.0" standalone="yes"?>
<svg width="512" height="512">
<path style="fill:#000000; stroke:none;" d="M0 0L0 512L512 512L512 0L0 0z"/>
<path style="fill:#33161a; stroke:none;" d="M364 55L364 56L375 56L364 55z"/>
<path style="fill:#71202b; stroke:none;" d="M126 56L126 57L132 57L126 56z"/>
<path style="fill:#f8475e; stroke:none;" d="M123 290C109.493 261.448 91.9506 238.961 85.5139 207C76.7824 163.643 96.6629 116.29 127 86C138.178 74.8397 152.551 63.4504 168 59C141.756 47.679 102.321 59.6732 79 72.5741C72.995 75.8959 70.5312 72.0599 65 73.2407C61.2814 74.0346 56.6619 78.539 54.1914 81.2863C50.6743 85.1972 53.1713 90.5048 50.0563 95C40.9989 108.071 31.245 119.12 24.8727 134C8.96081 171.156 12.9661 216.426 30.7531 252C36.2872 263.068 43.917 281.03 54.1844 288.397C58.935 291.805 68.4174 290 74 290L123 290z"/>
<path style="fill:#6b1f29; stroke:none;" d="M153 56L153 57L158 57L153 56z"/>
<path style="fill:#94404a; stroke:none;" d="M353 56L353 57L358 57L353 56z"/>
<path style="fill:#ff6e80; stroke:none;" d="M221 353L223 353C237.732 317.615 254.508 282.71 270.78 248C274.134 240.847 280.534 216.747 290 216.507C298.382 216.294 303.868 235.794 306.576 242C319.001 270.479 333.206 298.253 345 327C352.668 317.509 354.159 294.7 367.001 290.653C373.54 288.592 382.195 290 389 290L434 290C440.461 290 452.088 292.227 457.816 288.972C463.475 285.757 467.864 276.416 471.189 271C510.503 206.957 506.369 117.328 437 74.8109C425.161 67.5547 412.535 62.4121 399 59.3495C382.837 55.6924 366.411 55.0769 350 57.2886C324.859 60.6769 301.894 72.6863 283 89.2863C276.133 95.3197 270.49 102.734 264.996 109.999C262.884 112.793 259.965 117.133 256.001 117.133C248.405 117.133 237.243 97.1923 232 92.0038C216.174 76.3405 195.758 64.7849 174 59.8881C158.194 56.3309 138.401 73.7266 128 84.0038C96.0152 115.608 78.0099 161.91 85.3248 207C89.2496 231.193 100.038 254.448 113.053 275C118.898 284.229 126.649 295.503 139.61 289.397C142.862 287.864 143.951 283.005 145.306 280C149.222 271.313 153.084 262.582 157.224 254C159.076 250.161 162.461 242.623 167.996 244.407C176.249 247.068 180.925 264.782 184.139 272C196.199 299.082 208.305 326.209 221 353z"/>
<path style="fill:#9a424d; stroke:none;" d="M381 56L381 57L384 57L381 56z"/>
<path style="fill:#5b1a23; stroke:none;" d="M120 57L120 58L123 58L120 57z"/>
<path style="fill:#50171e; stroke:none;" d="M161 57L161 58L165 58L161 57z"/>
<path style="fill:#6a2e35; stroke:none;" d="M347.667 57.3333L348.333 57.6667L347.667 57.3333z"/>
<path style="fill:#8c3c46; stroke:none;" d="M389 57L389 58L392 58L389 57z"/>
<path style="fill:#5a272d; stroke:none;" d="M168.667 58.3333L169.333 58.6667L168.667 58.3333z"/>
<path style="fill:#7e363f; stroke:none;" d="M342.667 58.3333L343.333 58.6667L342.667 58.3333z"/>
<path style="fill:#6e2f37; stroke:none;" d="M395.667 58.3333L396.333 58.6667L395.667 58.3333z"/>
<path style="fill:#7e2430; stroke:none;" d="M111.667 59.3333L112.333 59.6667L111.667 59.3333z"/>
<path style="fill:#75323b; stroke:none;" d="M172.667 59.3333L173.333 59.6667L172.667 59.3333z"/>
<path style="fill:#98424c; stroke:none;" d="M338.667 59.3333L339.333 59.6667L338.667 59.3333z"/>
<path style="fill:#803740; stroke:none;" d="M399 59L399 60L402 60L399 59z"/>
<path style="fill:#5e292f; stroke:none;" d="M176.667 60.3333L177.333 60.6667L176.667 60.3333z"/>
<path style="fill:#ae4b57; stroke:none;" d="M331.667 61.3333L332.333 61.6667L331.667 61.3333z"/>
<path style="fill:#a02e3d; stroke:none;" d="M101.667 62.3333L102.333 62.6667L101.667 62.3333z"/>
<path style="fill:#a52f3f; stroke:none;" d="M71 75L71 76L74 76L71 75z"/>
<path style="fill:#7f3740; stroke:none;" d="M219 81L220 82L219 81z"/>
<path style="fill:#823841; stroke:none;" d="M224 85L225 86L224 85z"/>
<path style="fill:#833942; stroke:none;" d="M452 86L453 87L452 86z"/>
<path style="fill:#7c353e; stroke:none;" d="M240 101L241 102L240 101M473 109L474 110L473 109z"/>
<path style="fill:#602930; stroke:none;" d="M254 117L254 118L258 118L254 117z"/>
<path style="fill:#000000; stroke:none;" d="M189 131.532C180.942 133.439 165.459 151.079 177.148 157.972C188.109 164.436 186.39 145.825 194.964 146.662C203.138 147.46 199.995 161.838 210.891 158.566C217.169 156.68 215.37 146.326 213.08 142.001C208.716 133.758 198.087 129.382 189 131.532z"/>
<path style="fill:#612a31; stroke:none;" d="M197 131L197 132L200 132L197 131M312.667 131.333L313.333 131.667L312.667 131.333z"/>
<path style="fill:#000000; stroke:none;" d="M314 131.444C305.683 132.694 287.694 149.748 299.434 157.821C310.312 165.302 309.772 145.865 317.999 146.662C325.842 147.422 322.619 159.911 331.996 158.833C339.902 157.923 338.816 147.168 336.08 142.001C331.922 134.148 322.696 130.136 314 131.444z"/>
<path style="fill:#5f2930; stroke:none;" d="M320 131L320 132L323 132L320 131z"/>
<path style="fill:#803740; stroke:none;" d="M334 139L335 140L334 139z"/>
<path style="fill:#ad4b57; stroke:none;" d="M491.333 145.667L491.667 146.333L491.333 145.667z"/>
<path style="fill:#4c2126; stroke:none;" d="M173 147L173 154L174 154L173 147z"/>
<path style="fill:#823841; stroke:none;" d="M198 147L199 148L198 147z"/>
<path style="fill:#4e2227; stroke:none;" d="M338 147L338 154L339 154L338 147z"/>
<path style="fill:#4c2126; stroke:none;" d="M215 148L215 154L216 154L215 148z"/>
<path style="fill:#4b2026; stroke:none;" d="M296 148L296 154L297 154L296 148z"/>
<path style="fill:#9d2d3b; stroke:none;" d="M19.3333 150.667L19.6667 151.333L19.3333 150.667z"/>
<path style="fill:#a94955; stroke:none;" d="M200 150L200 153L201 153L200 150z"/>
<path style="fill:#ab4a56; stroke:none;" d="M311 150L311 153L312 153L311 150z"/>
<path style="fill:#b44e5a; stroke:none;" d="M323 150L323 153L324 153L323 150z"/>
<path style="fill:#8d3d47; stroke:none;" d="M493.333 152.667L493.667 153.333L493.333 152.667z"/>
<path style="fill:#8d2835; stroke:none;" d="M18.3333 154.667L18.6667 155.333L18.3333 154.667z"/>
<path style="fill:#ffffff; stroke:none;" d="M167.996 155.534C152.608 158.818 142.794 176.715 153.394 189.985C160.788 199.241 173.886 201.689 185 199.331C201.26 195.882 214.288 177.642 200.671 163.185C192.432 154.437 188.972 160.169 180.004 159.34C175.252 158.9 173.32 154.398 167.996 155.534M338.424 155.998C327.365 161.23 316.788 153.132 308.483 167.004C293.173 192.577 331.446 205.521 350 196.672C359.508 192.137 366.238 180.491 361.991 170C359.183 163.063 346.657 152.104 338.424 155.998z"/>
<path style="fill:#909090; stroke:none;" d="M174 156L175 157L174 156z"/>
<path style="fill:#939393; stroke:none;" d="M337 156L338 157L337 156z"/>
<path style="fill:#77333c; stroke:none;" d="M494 156L494 159L495 159L494 156z"/>
<path style="fill:#676767; stroke:none;" d="M175 157L176 158L175 157z"/>
<path style="fill:#696969; stroke:none;" d="M336 157L337 158L336 157z"/>
<path style="fill:#651d26; stroke:none;" d="M17 158L17 161L18 161L17 158z"/>
<path style="fill:#949494; stroke:none;" d="M176 158L177 159L176 158z"/>
<path style="fill:#969696; stroke:none;" d="M335 158L336 159L335 158z"/>
<path style="fill:#545454; stroke:none;" d="M178 159L178 160L183 160L178 159z"/>
<path style="fill:#53242a; stroke:none;" d="M206 159L206 160L210 160L206 159M301 159L301 160L306 160L301 159z"/>
<path style="fill:#545454; stroke:none;" d="M329 159L329 160L334 160L329 159z"/>
<path style="fill:#000000; stroke:none;" d="M238.059 162.032C230.379 166.12 235.902 174.716 241.004 178.03C249.201 183.355 261.564 183.495 269.999 178.633C276.459 174.911 282.602 160.769 270 161.256C264.404 161.473 260.846 167.84 255 167.393C248.985 166.933 244.587 158.556 238.059 162.032z"/>
<path style="fill:#5e292f; stroke:none;" d="M495.333 161.667L495.667 162.333L495.333 161.667z"/>
<path style="fill:#ab4a56; stroke:none;" d="M495 163L495 166L496 166L495 163z"/>
<path style="fill:#601c24; stroke:none;" d="M16 164L16 167L17 167L16 164z"/>
<path style="fill:#6f3038; stroke:none;" d="M253 167L253 168L258 168L253 167z"/>
<path style="fill:#79343d; stroke:none;" d="M496 168L496 173L497 173L496 168z"/>
<path style="fill:#932a38; stroke:none;" d="M15 174L15 184L16 184L15 174z"/>
<path style="fill:#ffbac3; stroke:none;" d="M206 174L206 180L207 180L206 174M305 174L305 180L306 180L305 174z"/>
<path style="fill:#58262c; stroke:none;" d="M248.667 181.333L249.333 181.667L248.667 181.333z"/>
<path style="fill:#9f4550; stroke:none;" d="M262.667 181.333L263.333 181.667L262.667 181.333z"/>
<path style="fill:#883b44; stroke:none;" d="M252 182L252 183L260 183L252 182z"/>
<path style="fill:#d25b69; stroke:none;" d="M496 184L496 197L497 197L496 184z"/>
<path style="fill:#913f49; stroke:none;" d="M496 197L496 204L497 204L496 197z"/>
<path style="fill:#6d1f29; stroke:none;" d="M15 198L15 204L16 204L15 198z"/>
<path style="fill:#ff9eaa; stroke:none;" d="M174 200L174 201L181 201L174 200M331 200L331 201L337 201L331 200z"/>
<path style="fill:#5b1a23; stroke:none;" d="M16 207L16 211L17 211L16 207z"/>
<path style="fill:#8d2835; stroke:none;" d="M17.3333 213.667L17.6667 214.333L17.3333 213.667z"/>
<path style="fill:#873a44; stroke:none;" d="M494 214L494 217L495 217L494 214z"/>
<path style="fill:#6b1f29; stroke:none;" d="M18.3333 218.667L18.6667 219.333L18.3333 218.667z"/>
<path style="fill:#5e292f; stroke:none;" d="M493.333 219.667L493.667 220.333L493.333 219.667z"/>
<path style="fill:#5b1a23; stroke:none;" d="M19.3333 222.667L19.6667 223.333L19.3333 222.667z"/>
<path style="fill:#4b2026; stroke:none;" d="M492.333 223.667L492.667 224.333L492.333 223.667z"/>
<path style="fill:#713139; stroke:none;" d="M289.667 242.333L290.333 242.667L289.667 242.333z"/>
<path style="fill:#a94955; stroke:none;" d="M165 243L165 244L168 244L165 243z"/>
<path style="fill:#ff6e80; stroke:none;" d="M289 243C274.143 278.733 257.3 314.004 240.781 349C236.88 357.264 233.678 365.956 229.319 373.996C227.709 376.967 224.926 380.826 221.004 380.029C212.868 378.378 207.851 359.713 204.861 353C192.577 325.416 181.201 296.638 167 270L166 270C158.831 285.129 155.466 305.998 136 306C163.347 345.994 207.193 379.54 246 407.849C255.559 414.822 265.155 421.767 275 428.333C278.328 430.553 282.829 434.889 287 435.072C298.792 435.588 312.338 417.631 323 413.322C327.21 411.62 330.829 415.174 335 413.091C345.739 407.727 344.21 398.531 352.043 391.805C373.43 373.442 395.985 357.015 416 337C425.193 327.807 438.445 317.929 444 306L391 306C386.148 306 375.741 304.036 371.699 307.028C364.153 312.615 359.232 332.439 355.309 341C353.414 345.134 351.457 351.83 345.997 352.338C337.365 353.141 332.452 334.03 329.691 328C316.757 299.751 302.94 271.678 291 243L289 243z"/>
<path style="fill:#833942; stroke:none;" d="M462 283L463 284L462 283z"/>
<path style="fill:#b63445; stroke:none;" d="M55 290L55 291L140 291L114 290L55 290z"/>
<path style="fill:#bb515e; stroke:none;" d="M366 290L366 291L458 291L430 290L366 290z"/>
<path style="fill:#421319; stroke:none;" d="M68 305L68 306L147 306L122 305L68 305z"/>
<path style="fill:#441d22; stroke:none;" d="M372 305L372 306C394.884 306 422.746 301.702 445 307C441.492 302.986 431.06 305 426 305L372 305z"/>
<path style="fill:#f8475e; stroke:none;" d="M68 306C78.0577 320.709 92.2081 332.813 105 345.039C135.663 374.348 169.953 399.85 205 423.656C216.723 431.619 228.849 439.109 241 446.4C245.139 448.883 251.011 454.09 256 454.188C265.445 454.374 278.787 441.372 287 437L244 405.626L174 346.715L148.285 320L134.996 306.603L114 306L68 306z"/>
<path style="fill:#823841; stroke:none;" d="M437 314L438 315L437 314M402 349L403 350L402 349z"/>
<path style="fill:#3f1b20; stroke:none;" d="M343 352L343 353L348 353L343 352z"/>
<path style="fill:#9e444f; stroke:none;" d="M221.667 353.333L222.333 353.667L221.667 353.333z"/>
<path style="fill:#7f3740; stroke:none;" d="M368 378L369 379L368 378z"/>
<path style="fill:#883b44; stroke:none;" d="M220 380L220 381L224 381L220 380z"/>
<path style="fill:#7f3740; stroke:none;" d="M354 389L355 390L354 389z"/>
<path style="fill:#b04c58; stroke:none;" d="M346 398L346 401L347 401L346 398z"/>
<path style="fill:#743a46; stroke:none;" d="M347.333 402.667L347.667 403.333L347.333 402.667z"/>
<path style="fill:#3c1a1e; stroke:none;" d="M323 412L323 413L328 413L323 412z"/>
</svg>
