<?xml version="1.0" standalone="yes"?>
<svg width="512" height="512">
<path style="fill:#000000; stroke:none;" d="M0 0L0 150L1 150C3.58109 141.229 10.7671 133.951 20 132.329C47.2849 127.536 79.2667 132 107 132L107 61C107 53.8606 104.423 40.6371 110.228 35.3179C114.317 31.5714 121.89 33 127 33L169 33L338 33L384 33C389.312 33 397.527 31.4289 401.772 35.3179C407.577 40.6371 405 53.8606 405 61L405 132C432.733 132 464.715 127.536 492 132.329C501.233 133.951 508.419 141.229 511 150L512 150L512 0L0 0z"/>
<path style="fill:#dad8db; stroke:none;" d="M107 132L124 132L124 33C119.137 33 112.032 31.6527 108.742 36.1481C104.381 42.1074 107 55.906 107 63L107 132z"/>
<path style="fill:#eceaec; stroke:none;" d="M124 33L124 132L405 132L405 61C405 54.2866 407.604 40.5141 402.566 35.3179C398.568 31.1935 389.235 33 384 33L332 33L124 33z"/>
<path style="fill:#6f6571; stroke:none;" d="M162.044 66.858C155.366 69.7419 155.813 79.818 163.015 81.6821C173.389 84.3672 187.282 82 198 82L274 82C282.551 82 303.903 85.8492 310.682 80.2577C314.735 76.9149 313.232 69.5291 308.941 67.179C303.536 64.2187 293.999 66 288 66L200 66C189.376 66 171.835 62.6295 162.044 66.858z"/>
<path style="fill:#938a94; stroke:none;" d="M313 72L313 77L314 77L313 72z"/>
<path style="fill:#a19ba2; stroke:none;" d="M163 82L163 83L307 83C295.782 78.2928 276.206 82 264 82L163 82z"/>
<path style="fill:#5d5360; stroke:none;" d="M162.044 99.858C155.366 102.742 155.813 112.818 163.015 114.682C176.282 118.116 194.279 115 208 115L306 115L339 115C343.267 115 349.285 116.068 352.566 112.682C356.828 108.284 354.441 101.463 348.96 99.6528C339.558 96.5478 325.866 99 316 99L208 99C195.301 99 173.713 94.8188 162.044 99.858z"/>
<path style="fill:#969098; stroke:none;" d="M163 115L163 116L349 116L331 115L294 115L163 115z"/>
<path style="fill:#5d5360; stroke:none;" d="M38 363L38 362C29.4982 355.087 33 337.974 33 328L33 234L33 173C33 166.046 30.8677 155.476 37.1088 150.653C43.4763 145.732 55.4187 148 63 148L127 148L377 148L447 148C454.998 148 468.193 145.476 474.891 150.653C479.549 154.253 479 159.717 479 165L479 197L479 319C479 330.395 483.583 354.208 474 362C481.637 365.205 493.732 363.004 502 363C504.617 362.999 509.109 363.75 510.972 361.397C513.175 358.615 512 352.328 512 349L512 317L512 193C512 174.656 518.664 143.183 498 133.905C488.589 129.68 475.124 132 465 132C440.654 132 416.271 133 392 133L131 133C103.346 133 75.7084 132 48 132C41.4015 132 23.8491 128.873 18.6034 133.028C15.5219 135.468 17 143.524 17 147L17 187L17 321C17 340.362 12.2651 363 38 363z"/>
<path style="fill:#706772; stroke:none;" d="M107 132L107 133L405 133L378 132L317 132L107 132z"/>
<path style="fill:#4b3f4e; stroke:none;" d="M511 363C388.753 363 266.33 364 144 364L54 364C43.709 364 27.6629 365.745 20.5579 356.907C16.002 351.24 17 343.799 17 337L17 297L17 133C-4.92058 139.45 0 165.275 0 183L0 322C0 337.18 -5.00242 362.19 7.18519 373.671C15.8712 381.854 28.0617 380 39 380C63.7031 380 88.3676 379.618 113 379.015C167.26 377.685 221.721 379 276 379C317.203 379 358.841 377.237 400 379.039C426.62 380.205 453.306 380 480 380C493.573 380 506.572 378.048 511 363z"/>
<path style="fill:#8c8995; stroke:none;" d="M40 148L40 149L472 149C461.972 144.792 444.896 148 434 148L346 148L40 148z"/>
<path style="fill:#e9f6ff; stroke:none;" d="M38.044 149.742C32.8644 151.853 33.0079 157.267 33 162L33 196L33 320L33 349C33.0067 353.145 32.6123 358.401 36.2785 361.258C42.0923 365.788 56.9269 363 64 363L137 363L382 363L448 363C455.266 363 468.438 365.52 474.867 361.821C479.06 359.408 478.979 354.232 478.999 350C479.046 340.334 479 330.666 479 321L479 196L479 163C478.998 158.412 479.553 152.803 474.891 150.179C467.775 146.173 453.032 149 445 149L369 149L135 149L67 149C58.6702 149 45.8108 146.577 38.044 149.742z"/>
<path style="fill:#ffffff; stroke:none;" d="M104 347C96.794 335.908 99 322.871 99 310C99 305.459 97.9061 299.168 100.028 295.005C103.532 288.128 111.307 288.207 114.821 295.015C117.247 299.715 116 306.865 116 312L116 330C128.755 330 166.387 324.851 152 347L360 347C345.613 324.851 383.245 330 396 330L396 312C396 306.842 394.769 299.734 397.179 295.005C400.654 288.185 408.429 288.152 411.972 295.015C414.107 299.152 413 305.48 413 310C413 322.871 415.206 335.908 408 347C422.893 347 444.57 351.087 455.815 338.957C464.933 329.12 462 313.355 462 301L462 211C462 199.022 464.963 183.776 456.671 174.015C445.456 160.814 423.429 165 408 165C415.473 176.121 413 189.948 413 203C413 207.721 413.992 213.81 411.258 217.956C407.333 223.907 400.405 223.234 397.179 216.985C394.753 212.285 396 205.135 396 200L396 182C383.425 182 345.21 187.014 360 165L152 165C166.79 187.014 128.575 182 116 182L116 200C116 205.135 117.247 212.285 114.821 216.985C111.561 223.3 104.661 224.045 100.742 217.981C98.0316 213.786 99 207.756 99 203C99 189.948 96.5273 176.121 104 165C88.1794 165 66.8259 160.714 55.213 174.015C46.7842 183.67 50 200.062 50 212L50 301C50 312.806 47.1437 328.296 55.3295 337.985C66.6448 351.377 88.3704 347 104 347z"/>
<path style="fill:#9bd7ee; stroke:none;" d="M105.005 165.742C99.913 167.725 99.0344 172.114 99.0008 177C98.9177 189.072 97.0605 203.128 99.2284 215C100.134 219.961 104.76 224.235 109.981 222.253C123.492 217.123 108.299 190.908 116.603 182.603C124.905 174.302 146.026 187.496 154.566 178.682C159.192 173.908 155.765 167.022 149.999 165.434C140.83 162.908 128.496 165 119 165C114.648 165 109.134 164.135 105.005 165.742M361.005 165.742C354.608 168.233 352.846 177.566 360.044 180.397C368.929 183.891 388.465 175.671 395.397 182.603C400.813 188.02 396.416 207.652 397.059 214.999C397.495 219.986 401.742 224.14 406.985 222.242C417.673 218.373 413 191.143 413 182C413 177.948 413.884 172.608 411.397 169.109C408.653 165.248 404.307 165.023 400 165.001C388.891 164.942 371.379 161.703 361.005 165.742z"/>
<path style="fill:#c1bec3; stroke:none;" d="M254 176L254 177L258 177L254 176z"/>
<path style="fill:#5d5360; stroke:none;" d="M219 298L293 298C294.578 307.17 299.171 322.407 304.969 329.772C308.858 334.711 317.104 333.209 318.681 326.985C321.172 317.159 311.591 301.033 308 292C297.217 264.874 287.247 237.352 277.05 210C273.754 201.159 269.854 179.16 258.999 177.229C245.072 174.752 242.2 192.414 238.399 202C226.313 232.483 214.692 263.244 203.319 294C200.282 302.213 188.438 321.608 194.603 329.852C198.009 334.405 204.719 333.231 207.637 328.867C212.895 320.998 217.604 307.321 219 298z"/>
<path style="fill:#bce4f4; stroke:none;" d="M116 181L116 182L151 182L116 181M361 181L361 182L396 182L361 181z"/>
<path style="fill:#c2e7f5; stroke:none;" d="M115 182L115 217L116 217L115 182M396 182L396 217L397 217L396 182z"/>
<path style="fill:#ffffff; stroke:none;" d="M256 203C244.674 227.212 232.16 256.004 226 282L286 282L267.681 232L256 203z"/>
<path style="fill:#7d7580; stroke:none;" d="M226 282L226 283L286 283L267 282L226 282z"/>
<path style="fill:#9bd7ee; stroke:none;" d="M104.019 290.032C95.6591 294.279 99 311.228 99 319C99 325.805 96.5964 338.326 101.434 343.772C104.464 347.183 108.821 346.993 113 347C122.938 347.017 144.577 351.043 152.891 345.258C157.829 341.822 158.024 333.99 151.956 331.603C143.071 328.109 123.535 336.329 116.603 329.397C110.786 323.58 116.087 303.833 114.852 296.004C114.065 291.018 108.809 287.598 104.019 290.032M401.059 290.032C389.742 296.057 402.044 319.582 395.972 328.682C393.934 331.737 389.15 330.999 386 331C378.965 331.003 361.344 327.806 356.743 334.148C353.241 338.974 356.766 345.113 362.004 346.566C371.724 349.263 384.924 347 395 347C399.059 347 404.245 347.801 407.956 345.821C412.588 343.35 412.975 338.686 412.999 334C413.06 322.38 415.544 307.259 412.682 296.004C411.473 291.247 405.765 287.526 401.059 290.032z"/>
<path style="fill:#c2e7f5; stroke:none;" d="M115 295L115 330L116 330L115 295M396 295L396 330L397 330L396 295z"/>
<path style="fill:#938c95; stroke:none;" d="M219 298L219 299L293 299L270 298L219 298z"/>
<path style="fill:#afaab0; stroke:none;" d="M192 323L192 327L193 327L192 323z"/>
<path style="fill:#b1adb3; stroke:none;" d="M319 323L319 327L320 327L319 323z"/>
<path style="fill:#bce4f4; stroke:none;" d="M116 330L116 331L151 331L116 330M361 330L361 331L396 331L361 330z"/>
<path style="fill:#000000; stroke:none;" d="M0 362L0 512L512 512L512 362L511 362C508.451 370.663 501.128 378.067 492 379.671C464.716 384.466 432.732 380 405 380L405 451C405 458.139 407.577 471.363 401.772 476.682C397.683 480.429 390.11 479 385 479L343 479L174 479L128 479C122.688 479 114.473 480.571 110.228 476.682C104.423 471.363 107 458.139 107 451L107 380L45 380C35.6656 380 23.6925 381.996 15 378.095C7.26433 374.623 4.44942 368.584 0 362z"/>
<path style="fill:#807c89; stroke:none;" d="M40 363L40 364L472 364C461.972 359.792 444.896 363 434 363L346 363L40 363z"/>
<path style="fill:#605663; stroke:none;" d="M107 379L107 380L405 380L378 379L317 379L107 379z"/>
<path style="fill:#dad8db; stroke:none;" d="M107 380L107 449C107 456.094 104.381 469.893 108.742 475.852C111.588 479.74 116.761 479 121 479L150 479L272 479L362 479C372.718 479 389.976 482.322 399.956 478.397C406.349 475.882 405 467.488 405 462L204 462L159 462C148.552 462 139.38 462.778 131.44 454.699C123.765 446.89 124 437.21 124 427L124 380L107 380z"/>
<path style="fill:#eceaec; stroke:none;" d="M124 380L124 428C124 438.058 123.639 447.977 131.44 455.532C138.872 462.73 147.414 462 157 462L204 462L405 462L405 380L124 380z"/>
<path style="fill:#969098; stroke:none;" d="M163 396L163 397L349 397L331 396L294 396L163 396z"/>
<path style="fill:#5d5360; stroke:none;" d="M161.059 398.028C154.393 401.679 157.31 411.291 164.015 412.721C178.097 415.725 195.59 413 210 413L306 413L339 413C343.355 413 348.962 413.732 352.347 410.347C356.612 406.082 354.887 398.823 348.995 397.318C339.748 394.955 327.541 397 318 397L205 397L175 397C170.822 397 164.851 395.951 161.059 398.028z"/>
<path style="fill:#a19ba2; stroke:none;" d="M204 429L204 430L349 430C337.544 425.193 317.468 429 305 429L204 429z"/>
<path style="fill:#6f6571; stroke:none;" d="M202.109 431.028C195.527 434.733 198.47 444.021 205.004 445.682C215.425 448.332 229.246 446 240 446L316 446C324.635 446 345.863 449.832 352.347 443.347C356.238 439.457 355.243 432.631 349.981 430.603C343.907 428.263 334.456 430 328 430L238 430C228.732 430 210.241 426.45 202.109 431.028z"/>
</svg>
