<?xml version="1.0" standalone="yes"?>
<svg width="512" height="512">
<path style="fill:#000000; stroke:none;" d="M0 0L0 512L512 512L512 0L0 0z"/>
<path style="fill:#3a2c60; stroke:none;" d="M401 212L401 152C401 148.505 403.137 133.706 397.09 134.466C391.856 135.124 394 149.291 394 153L394 212C383.773 212 365.678 208.524 357.015 214.653C345.529 222.78 349.137 241.316 363 244L363 407C363 429.716 357.782 456.368 375 474C351.128 480.316 321.685 476 297 476L143 476L94 476C82.6853 476 72.4112 476.678 63.0895 469.1C43.2193 452.948 51 413.72 51 391L51 210L51 158C51 151.814 49.1055 141.869 51.6034 136.148C54.1418 130.334 69.7378 133 75 133C94.9855 133 124.499 138.427 143 130.095C163.128 121.03 164 102.033 164 83L164 20L302 20C323.142 20 348.289 16.236 369 20.3789C392.843 25.1483 393.999 47.5096 394 67C394 69.4473 393.618 81.661 399.401 77.7624C403.028 75.3176 401 62.9027 401 59C401 38.8729 397.723 19.0744 375 12.9275C359.408 8.70959 339.12 12 323 12L214 12L174 12C169.004 12 161.687 10.6831 157.17 13.179C147.557 18.4907 138.787 31.2127 131 39L74 96C65.2305 104.77 48.205 116.318 43.7423 128C41.464 133.964 43 142.687 43 149L43 194L43 347L43 438C43 454.726 46.2395 471.88 63 479.865C73.6841 484.955 85.5215 484 97 484L149 484L346 484C358.273 484 370.211 480.653 382 480.384C387.395 480.261 393.433 483.324 399 483.829C411.797 484.991 425.235 478.325 432.56 467.996C443.541 452.512 439 428.032 439 410L439 273C439 265.576 436.579 253.047 439.603 246.225C440.905 243.288 444.547 242.574 446.811 240.582C452.285 235.764 454.078 226.362 450.583 220.004C442.219 204.787 415.064 212 401 212z"/>
<path style="fill:#5275a6; stroke:none;" d="M164 20L164 100L165 100L165 45L164 20z"/>
<path style="fill:#6dc9f7; stroke:none;" d="M165 20L165 79C165 95.0612 165.142 110.518 152.711 122.561C140.597 134.295 125.721 134 110 134L52 134L52 371L52 432C52 442.3 50.5489 453.958 56.6096 462.985C70.969 484.374 111.726 476 134 476L294 476C319.656 476 350.1 480.442 375 474C358.371 450.09 362 425.108 362 397C352.039 402.089 341.928 401 331 401L281 401C272.057 401 260.297 403.178 253.109 396.66C246.796 390.936 248 381.706 248 374L248 321C248 312.207 246.888 303.403 255.015 297.653C260.609 293.695 268.518 295 275 295L319 295C333.106 295 349.165 292.442 362 299L362 269L146 269L95 269C88.7773 269 80.417 270.1 79.1481 261.999C78.4487 257.533 77.6445 247.966 81.4336 244.742C85.4119 241.358 94.1351 243 99 243L143 243L358 243L358 242C347.977 233.627 347.329 218.546 361 213.009C369.786 209.451 383.596 212 393 212L393 154C393 147.151 390.957 137.696 398 134C397.999 123.892 393 116.552 393 106C393 98.0462 396.707 93.9406 397.852 86.9105C398.905 80.4449 394.035 77.7509 393.148 71.9992C390.942 57.6916 397.194 42.1795 386.671 30.0401C373.137 14.4261 344.419 20 326 20L165 20z"/>
<path style="fill:#547cac; stroke:none;" d="M368 20L368 21L371 21L368 20z"/>
<path style="fill:#a39db5; stroke:none;" d="M155 26C160.369 48.5493 156 76.8113 156 100L157 100L157 45C157 39.9402 159.014 29.5077 155 26z"/>
<path style="fill:#ffffff; stroke:none;" d="M155 27C147.17 35.0925 149 44.4094 149 55C149 77.2708 154.957 108.197 134 123L134 124C164.382 119.429 156 75.6443 156 54C156 45.9926 158.105 34.3995 155 27z"/>
<path style="fill:#e6e7e8; stroke:none;" d="M398 32C401.153 45.3126 403.434 58.0999 401.891 71.9962C401.318 77.1627 397.605 80.4145 398.059 85.9606C398.396 90.0654 401.587 92.8469 401.941 97.0008C402.5 103.538 403.206 112.596 401.687 118.985C400.808 122.682 398.039 124.975 398.039 129C398.039 133.557 401.559 136.528 401.941 141.001C403.931 164.298 402 188.609 402 212L418 212L418 82C418 62.4563 418.645 41.8234 398 32z"/>
<path style="fill:#73bef6; stroke:none;" d="M148 34L148 100L149 100L149 55L148 34z"/>
<path style="fill:#0089ef; stroke:none;" d="M147 35L86 96C77.434 104.566 64.1448 113.968 59 125L111 125C117.769 125 127.839 126.85 134 123.682C154.889 112.943 148 77.0193 148 58C148 51.049 149.701 41.4362 147 35z"/>
<path style="fill:#89839f; stroke:none;" d="M400.333 39.6667L400.667 40.3333L400.333 39.6667z"/>
<path style="fill:#5c95c6; stroke:none;" d="M393 44L393 76L394 76L393 44z"/>
<path style="fill:#736a8c; stroke:none;" d="M401 44L401 76L402 76L401 44z"/>
<path style="fill:#d4fbff; stroke:none;" d="M174.318 64.0278C169.652 67.1413 170.223 87.0794 176.059 88.6821C189.681 92.423 208.848 89 223 89L327 89L362 89C365.694 89 372.521 90.272 375.397 87.3966C379.159 83.6345 378.671 64.8913 372.941 63.3179C359.319 59.577 340.152 63 326 63L224 63L189 63C184.935 63 177.852 61.6692 174.318 64.0278z"/>
<path style="fill:#9ee1fb; stroke:none;" d="M377 66L377 86L378 86L377 66z"/>
<path style="fill:#3a2c60; stroke:none;" d="M396.299 91.0864C391.551 93.8634 393.341 114.018 394.148 118.981C394.52 121.27 396.586 124.812 399.401 122.914C403.568 120.105 401.376 99.7942 400.941 95.0193C400.721 92.5954 399.341 89.3068 396.299 91.0864z"/>
<path style="fill:#736a8c; stroke:none;" d="M401 92L401 122L402 122L401 92z"/>
<path style="fill:#5c95c6; stroke:none;" d="M393 93L393 121L394 121L393 93z"/>
<path style="fill:#93cdf8; stroke:none;" d="M147.333 103.667L147.667 104.333L147.333 103.667z"/>
<path style="fill:#71678c; stroke:none;" d="M155.333 103.667L155.667 104.333L155.333 103.667z"/>
<path style="fill:#9891ac; stroke:none;" d="M151 112L152 113L151 112z"/>
<path style="fill:#9790ab; stroke:none;" d="M143 120L144 121L143 120z"/>
<path style="fill:#1b5eac; stroke:none;" d="M58 124C61.5077 128.014 71.9402 126 77 126L130 126L130 125C107.421 125 79.9587 129.228 58 124z"/>
<path style="fill:#a29bb4; stroke:none;" d="M133.667 124.333L134.333 124.667L133.667 124.333z"/>
<path style="fill:#5378a9; stroke:none;" d="M134.667 132.333L135.333 132.667L134.667 132.333z"/>
<path style="fill:#5275a6; stroke:none;" d="M52 133L52 134L131 134L106 133L52 133z"/>
<path style="fill:#4b5e90; stroke:none;" d="M51 134L51 448L52 448L52 226L52 162L51 134z"/>
<path style="fill:#736a8c; stroke:none;" d="M401 136L401 212L402 212L402 160L401 136z"/>
<path style="fill:#5c95c6; stroke:none;" d="M393 137L393 212L394 212L394 160L393 137z"/>
<path style="fill:#3a2c60; stroke:none;" d="M77.3225 149.028C74.7001 150.815 75.4317 154.202 78.1489 155.397C82.675 157.387 90.1276 156 95 156L167 156C172.47 156 191.433 158.935 194.968 154.4C197.12 151.639 194.743 148.788 191.941 148.228C185.394 146.921 177.668 148 171 148L103 148C96.6482 148 82.6811 145.375 77.3225 149.028M251.323 149.028C241.79 155.525 264.694 156 267 156L342 156C347.745 156 364.224 158.808 368.377 154.397C370.676 151.956 368.629 149.057 365.941 148.318C360.009 146.685 352.134 148 346 148L277 148C270.648 148 256.681 145.375 251.323 149.028z"/>
<path style="fill:#5174a5; stroke:none;" d="M196 151L196 154L197 154L196 151z"/>
<path style="fill:#588bba; stroke:none;" d="M78 171L78 172L194 172L159 171L78 171M251 171L251 172L368 172L332 171L251 171z"/>
<path style="fill:#3a2c60; stroke:none;" d="M77.3333 173.027C74.8913 174.704 75.5028 177.841 78.2292 178.682C83.3837 180.273 90.6287 179 96 179L167 179C172.345 179 191.589 181.913 194.953 177.401C196.876 174.822 194.387 172.565 191.941 172.148C185.308 171.018 177.726 172 171 172L103 172C96.6746 172 82.657 169.37 77.3333 173.027M250.608 173.027C248.287 174.895 249.686 177.951 252.148 178.682C257.38 180.236 264.564 179 270 179L341 179C346.345 179 365.589 181.913 368.953 177.401C370.876 174.822 368.387 172.565 365.941 172.148C359.308 171.018 351.726 172 345 172L276 172C270.207 172 255.225 169.31 250.608 173.027z"/>
<path style="fill:#5071a2; stroke:none;" d="M196 174L196 177L197 177L196 174z"/>
<path style="fill:#4f6a9d; stroke:none;" d="M78 179L78 180L194 180L159 179L78 179M251 179L251 180L368 180L332 179L251 179z"/>
<path style="fill:#3a2c60; stroke:none;" d="M77.3225 196.028C74.7001 197.815 75.4317 201.202 78.1489 202.397C82.675 204.387 90.1276 203 95 203L167 203C172.647 203 191.225 205.96 194.968 201.262C197.132 198.545 194.671 195.773 191.941 195.228C185.393 193.922 177.668 195 171 195L103 195C96.6482 195 82.6811 192.375 77.3225 196.028M251.323 196.028C241.79 202.525 264.694 203 267 203L342 203C347.745 203 364.224 205.808 368.377 201.397C370.676 198.956 368.629 196.057 365.941 195.318C360.009 193.685 352.134 195 346 195L277 195C270.648 195 256.681 192.375 251.323 196.028z"/>
<path style="fill:#5175a6; stroke:none;" d="M196 198L196 201L197 201L196 198z"/>
<path style="fill:#544875; stroke:none;" d="M366 219L366 220L437 220L415 219L366 219z"/>
<path style="fill:#ffffff; stroke:none;" d="M363.044 220.742C356.755 223.305 356.621 232.87 363.044 235.397C368.062 237.37 375.67 236 381 236L422 236C427.28 236 436.394 237.729 440.852 234.397C446.607 230.094 443.498 221.43 436.996 220.228C420.774 217.23 401.511 220 385 220C378.539 220 369.098 218.275 363.044 220.742z"/>
<path style="fill:#73698e; stroke:none;" d="M444 227L444 230L445 230L444 227z"/>
<path style="fill:#e6e7e8; stroke:none;" d="M453 227C451.613 231.34 450.874 235.384 447.671 238.892C445.408 241.37 441.294 242.722 440.318 246.133C436.711 258.733 440 276.87 440 290L440 387C440 409.707 446.441 443.903 434.525 464C426.775 477.069 412.23 485.137 397 483.907C391.852 483.491 387.136 480.152 382 480.289C377.519 480.408 373.386 482.943 369 483.674C361.932 484.852 354.153 484 347 484L155 484C126.923 484 90.3415 490.162 64 480C70.2697 498.903 90.4566 500 107 500L230 500C284.866 500 342.997 505.052 397 497.114C401.348 496.475 405.673 499.356 410 499.826C424.819 501.438 439.534 497.483 448.699 484.985C458.074 472.201 456 456.948 456 442L456 359L456 296C456 286.033 454.571 274.854 456.148 265.015C457.398 257.219 467.859 255.411 468.8 246C469.854 235.461 462.061 229.628 453 227z"/>
<path style="fill:#9a95ac; stroke:none;" d="M451.333 232.667L451.667 233.333L451.333 232.667z"/>
<path style="fill:#948ca8; stroke:none;" d="M442 233L443 234L442 233z"/>
<path style="fill:#a19ab3; stroke:none;" d="M441 234L442 235L441 234z"/>
<path style="fill:#cac7d5; stroke:none;" d="M364 236L364 237L438 237L415 236L364 236z"/>
<path style="fill:#9de0fb; stroke:none;" d="M82 243L82 244L360 244L335 243L278 243L82 243z"/>
<path style="fill:#d4fbff; stroke:none;" d="M362 268L362 244L146 244L95 244C90.3233 244 80.46 241.888 79.2284 248.059C78.4147 252.135 77.465 263.258 80.6034 266.397C83.87 269.663 92.7594 268 97 268L143 268L362 268z"/>
<path style="fill:#4b5e90; stroke:none;" d="M362 244L362 300L363 300L363 262L362 244z"/>
<path style="fill:#6f648a; stroke:none;" d="M370 244L370 245L432 245L412 244L370 244z"/>
<path style="fill:#4d406e; stroke:none;" d="M439 244L439 450L440 450L440 305L440 264L439 244z"/>
<path style="fill:#c0bccc; stroke:none;" d="M370 245L370 449L371 449L371 306L371 265L370 245z"/>
<path style="fill:#ffffff; stroke:none;" d="M371 245L371 423C371 445.438 369.818 475.931 401 475.921C432.282 475.911 431 445.49 431 423L431 245L371 245z"/>
<path style="fill:#eae9ee; stroke:none;" d="M431 245L431 449L432 449L432 306L432 265L431 245z"/>
<path style="fill:#90dafa; stroke:none;" d="M82 268L82 269L362 269L337 268L280 268L82 268z"/>
<path style="fill:#544875; stroke:none;" d="M377 276L377 277L426 277C413.348 271.691 390.788 276 377 276z"/>
<path style="fill:#3a2c60; stroke:none;" d="M375 277L375 427C375 445.78 374.156 471.2 400 471.871C426.901 472.57 427 447.608 427 428L427 277L375 277z"/>
<path style="fill:#504371; stroke:none;" d="M427 278L427 449L428 449L428 329C428 314.7 432.506 291.121 427 278z"/>
<path style="fill:#796f93; stroke:none;" d="M374 279L374 449L375 449L375 330C375 315.7 379.506 292.121 374 279z"/>
<path style="fill:#bd5e8a; stroke:none;" d="M382 284L382 302L383 302L382 284z"/>
<path style="fill:#fa759e; stroke:none;" d="M383 284L383 302C387.189 302 407.492 299.524 406.369 306.961C405.363 313.625 387.719 311 383 311L383 335C387.084 335 407.504 332.632 406.369 339.985C405.344 346.62 387.708 344 383 344L383 369C387.041 369 407.561 366.599 406.369 373.871C405.463 379.4 387.161 377 383 377L383 402C387.189 402 407.492 399.524 406.369 406.961C405.363 413.625 387.719 411 383 411C383 423.085 378.934 444.315 385.09 454.996C393.339 469.311 414.966 465.209 419.362 450C423.727 434.896 420 413.724 420 398L420 284L383 284z"/>
<path style="fill:#ffd7e5; stroke:none;" d="M86.0154 295.858C77.2668 299.508 79 310.367 79 318L79 374C79 380.781 77.0299 391.127 81.804 396.656C87.0312 402.709 100.776 400 108 400L165 400C172.61 400 183.846 402.073 190.985 399.258C199.343 395.961 197 384.112 197 377L197 321C197 314.605 198.953 304.381 194.566 299.133C189.074 292.564 176.607 295 169 295L112 295C104.413 295 93.0895 292.906 86.0154 295.858M258 295.653C249.396 298.355 248.003 306.192 248 314L248 371C248 378.299 246.27 388.573 250.728 394.906C256.03 402.438 268.019 400 276 400L333 400C340.202 400 351.233 402.065 357.941 399.258C364.654 396.449 362 382.872 362 377L362 320C362 314.435 364.173 302.911 360.397 298.419C355.419 292.498 341.834 295 335 295L283 295C275.321 295 265.371 293.338 258 295.653z"/>
<path style="fill:#79628b; stroke:none;" d="M362 300L362 396L363 396L363 329L362 300z"/>
<path style="fill:#944e7d; stroke:none;" d="M382 302L382 303L405 303L382 302z"/>
<path style="fill:#a9cfef; stroke:none;" d="M197 304L197 391L198 391L198 331L197 304z"/>
<path style="fill:#9c5180; stroke:none;" d="M407 305L407 308L408 308L407 305z"/>
<path style="fill:#bd5e8a; stroke:none;" d="M382 310L382 336L404 336L404 335L383 335L383 311L405 311L382 310z"/>
<path style="fill:#9f5281; stroke:none;" d="M407 338L407 341L408 341L407 338z"/>
<path style="fill:#603a6d; stroke:none;" d="M382 343L382 344L405 344L382 343z"/>
<path style="fill:#bd5e8a; stroke:none;" d="M382 344L382 369L383 369L382 344z"/>
<path style="fill:#9f5381; stroke:none;" d="M407 372L407 375L408 375L407 372z"/>
<path style="fill:#bd5e8a; stroke:none;" d="M382 377L382 402L383 402L382 377z"/>
<path style="fill:#4b5e90; stroke:none;" d="M362 396L362 450L363 450L363 414L362 396z"/>
<path style="fill:#d8d4ea; stroke:none;" d="M87 400L87 401L189 401L158 400L87 400M259 400L259 401L355 401L326 400L259 400z"/>
<path style="fill:#944e7d; stroke:none;" d="M382 402L382 403L405 403L382 402z"/>
<path style="fill:#9c5180; stroke:none;" d="M407 405L407 408L408 408L407 405z"/>
<path style="fill:#bd5e8a; stroke:none;" d="M382 410L382 448L383 448L383 411L405 411L382 410z"/>
<path style="fill:#485688; stroke:none;" d="M91 440L91 441L187 441L158 440L91 440M258 440L258 441L354 441L325 440L258 440z"/>
<path style="fill:#3a2c60; stroke:none;" d="M90.608 442.027C82.8844 448.245 103.97 448 106 448L165 448C169.663 448 184.94 450.442 187.953 446.401C193.172 439.402 171.76 441 169 441L112 441C106.957 441 94.6709 438.756 90.608 442.027M257.623 442.027C250.514 447.988 271.092 448 273 448L334 448C338.906 448 351.761 450.269 355.353 446.401C361.505 439.775 340.472 441 338 441L279 441C274.066 441 261.54 438.742 257.623 442.027z"/>
<path style="fill:#5f9fcf; stroke:none;" d="M92 448L92 449L186 449L157 448L92 448M259 448L259 449L354 449L325 448L259 448z"/>
<path style="fill:#bbb6c8; stroke:none;" d="M427.333 449.667L427.667 450.333L427.333 449.667z"/>
<path style="fill:#8980a0; stroke:none;" d="M431 449L431 452L432 452L431 449z"/>
<path style="fill:#ada9bc; stroke:none;" d="M439 450L439 453L440 453L439 450z"/>
<path style="fill:#5273a4; stroke:none;" d="M52.3333 452.667L52.6667 453.333L52.3333 452.667z"/>
<path style="fill:#b9b4c6; stroke:none;" d="M375.333 452.667L375.667 453.333L375.333 452.667z"/>
<path style="fill:#9189a6; stroke:none;" d="M430.333 453.667L430.667 454.333L430.333 453.667z"/>
<path style="fill:#9792aa; stroke:none;" d="M438.333 454.667L438.667 455.333L438.333 454.667z"/>
<path style="fill:#9891ac; stroke:none;" d="M378 459L379 460L378 459z"/>
<path style="fill:#9992ad; stroke:none;" d="M421 462L422 463L421 462z"/>
<path style="fill:#a49db5; stroke:none;" d="M426 462L427 463L426 462z"/>
<path style="fill:#978fab; stroke:none;" d="M418 465L419 466L418 465z"/>
<path style="fill:#8e86a4; stroke:none;" d="M395.667 471.333L396.333 471.667L395.667 471.333z"/>
<path style="fill:#8980a0; stroke:none;" d="M404 471L404 472L407 472L404 471z"/>
<path style="fill:#5276a7; stroke:none;" d="M368 475L368 476L371 476L368 475z"/>
<path style="fill:#958eaa; stroke:none;" d="M394 475L394 476L397 476L394 475z"/>
<path style="fill:#9b93ae; stroke:none;" d="M405 475L405 476L408 476L405 475z"/>
<path style="fill:#b1adbe; stroke:none;" d="M381.667 479.333L382.333 479.667L381.667 479.333z"/>
<path style="fill:#6f668a; stroke:none;" d="M70.6667 482.333L71.3333 482.667L70.6667 482.333z"/>
<path style="fill:#a6a1b6; stroke:none;" d="M73.6667 483.333L74.3333 483.667L73.6667 483.333z"/>
<path style="fill:#7f7697; stroke:none;" d="M368 483L368 484L371 484L368 483z"/>
<path style="fill:#6d6388; stroke:none;" d="M393 483L393 484L397 484L393 483z"/>
<path style="fill:#9d98af; stroke:none;" d="M406 483L406 484L409 484L406 483z"/>
</svg>
