<?xml version="1.0" standalone="yes"?>
<svg width="512" height="512">
<path style="fill:#ffffff; stroke:none;" d="M0 0L0 512L48 512C48 480.679 40.5078 449.385 45.4097 418C47.0811 407.299 48.0869 395.681 55.3287 387.004C65.1101 375.284 82.0448 369.659 96 364.692C102.468 362.39 112.583 361.646 115.945 354.956C120.867 345.162 125.625 320.346 119.972 310.171C114.938 301.108 103.034 298.407 100.695 287C97.4281 271.062 115.435 265.689 127 270L108 234C88.4599 234 60.1255 234.965 59.0401 208C58.7295 200.284 65.9967 193.947 64.9907 187C61.5162 163.006 56.3812 143.515 61 119C29.2964 105.318 35.7367 63.4675 68 56C66.0851 31.7365 74.9247 5.20837 103 1L72 0L0 0z"/>
<path style="fill:#407194; stroke:none;" d="M68 57C44.4779 57.5011 33.3506 85.8658 43.9051 105C47.2835 111.125 58.4066 115.442 60.1111 121.213C61.9553 127.457 59.0025 136.482 59 143C58.9942 158.102 60.6295 174.765 66 189C76.6591 183.089 83.9027 182 96 182C96 165.611 93.5613 144.494 110.001 134.613C131.058 121.956 164.793 140.681 187 142.83C214.188 145.461 238.501 134.012 265 131.174C283.66 129.175 297.437 136.989 301.334 156C303.038 164.312 302 173.543 302 182C313.993 182 321.413 183.135 332 189C350.648 139.571 335.828 77.3343 285 54.8619C271.712 48.9868 256.454 44.7899 242 43.1729C235.153 42.4068 224.349 44.099 218.148 41.3966C213.126 39.2082 210.987 23.8814 206.79 19.0008C188.915 -1.7854 165.328 4.54733 146 18C133.612 -5.81476 95.9242 -4.31769 79.1736 13.0903C67.0699 25.669 66.7184 40.7607 68 57z"/>
<path style="fill:#ffffff; stroke:none;" d="M118 0L118 1C129.253 2.66199 139.156 9.04166 146 18C154.108 14.2414 159.807 7.60565 169 5.52856C191.392 0.469116 213.082 19.4377 216 41C256.822 41.8427 299.113 53.3865 324 88L325 88L325 25C325 17.3313 322.747 6.51804 329 1L309 0L266 0L118 0z"/>
<path style="fill:#ddebfd; stroke:none;" d="M325 41L446 41L446 14C446 10.4389 446.877 5.26187 444.397 2.3179C440.064 -2.82452 424.182 0 418 0L352 0C345.793 0 332.419 -2.49854 327.434 1.74228C324.322 4.38965 325.001 9.35928 325 13L325 41z"/>
<path style="fill:#bed9fd; stroke:none;" d="M443 0C449.157 11.1917 446 28.4588 446 41L473 42L473 13C472.993 9.02423 473.322 4.42557 469.772 1.74228C463.953 -2.65466 450.01 0 443 0z"/>
<path style="fill:#ffffff; stroke:none;" d="M468 0L468 1C473.964 5.72754 473 12.0107 473 19L473 57C473 102.497 479.256 158.79 428 180.384C420.718 183.452 412.934 185.933 405 186L405 279C405 295.535 407.194 313.32 397.907 328C391.424 338.247 381.729 345.292 370 348.395C355.099 352.337 339.182 350.235 333.789 369C330.822 379.324 339.158 381.708 344.362 389C348.818 395.243 350.666 403.565 351.919 411C357.636 444.923 350 478.148 350 512L512 512L512 0L468 0z"/>
<path style="fill:#7c9eb6; stroke:none;" d="M168 5L168 6L172 6L168 5z"/>
<path style="fill:#98b3c6; stroke:none;" d="M181 5L181 6L184 6L181 5z"/>
<path style="fill:#a5bccd; stroke:none;" d="M186.667 6.33334L187.333 6.66666L186.667 6.33334z"/>
<path style="fill:#93afc3; stroke:none;" d="M68.3333 31.6667L68.6667 32.3333L68.3333 31.6667z"/>
<path style="fill:#96b1c4; stroke:none;" d="M214.333 33.6667L214.667 34.3333L214.333 33.6667z"/>
<path style="fill:#a5bccd; stroke:none;" d="M67 35L67 38L68 38L67 35z"/>
<path style="fill:#8fabc0; stroke:none;" d="M215 37L215 41L216 41L215 37z"/>
<path style="fill:#8eabc0; stroke:none;" d="M216 41L216 42L223 42L216 41z"/>
<path style="fill:#e9b5ca; stroke:none;" d="M325 41L325 42L446 42C436.211 37.8923 419.634 41 409 41L325 41z"/>
<path style="fill:#e990ab; stroke:none;" d="M446 41L446 42L472 42L446 41z"/>
<path style="fill:#c8d6e0; stroke:none;" d="M234 42L234 43L238 43L234 42z"/>
<path style="fill:#f9637c; stroke:none;" d="M325 42C325 56.5416 321.976 74.8809 325.418 89C327.756 98.589 334.172 107.046 336.332 117C339.012 129.356 335.79 144.384 339.564 156C345.258 173.523 372.6 183.917 389 186L389 283C389 297.286 391.397 313.558 380.815 324.957C367.094 339.738 344.087 331.591 329.174 347.09C325.31 351.105 315.037 364.309 319.042 370.363C321.523 374.111 328.989 376.33 333 378C333.116 364.143 342.603 353.194 356 349.761C361.274 348.409 366.767 349.66 372 348.099C384.498 344.371 395.366 336.271 400.535 324C405.658 311.841 404 297.881 404 285L404 217C404 208.783 402.141 197.991 404.318 190.059C405.955 184.095 419.84 183.823 425 181.946C438.501 177.035 450.666 167.758 458.957 156C480.732 125.118 472 77.8495 472 42L325 42z"/>
<path style="fill:#fa94a5; stroke:none;" d="M472 42L472 118L473 118L473 66L472 42z"/>
<path style="fill:#92aec2; stroke:none;" d="M248 44L248 45L251 45L248 44z"/>
<path style="fill:#acc1d0; stroke:none;" d="M254.667 45.3333L255.333 45.6667L254.667 45.3333z"/>
<path style="fill:#adc2d1; stroke:none;" d="M266.667 48.3333L267.333 48.6667L266.667 48.3333z"/>
<path style="fill:#8eabc0; stroke:none;" d="M65 56L65 57L68 57L65 56z"/>
<path style="fill:#82a2b9; stroke:none;" d="M40.3333 80.6667L40.6667 81.3333L40.3333 80.6667z"/>
<path style="fill:#b3c6d4; stroke:none;" d="M39 84L39 92L40 92L39 84z"/>
<path style="fill:#e8b1c7; stroke:none;" d="M396 86L396 87L401 87L396 86z"/>
<path style="fill:#ddebfd; stroke:none;" d="M391 107C386.169 107 378.499 105.567 374.228 108.179C369.534 111.049 370.691 118.334 375.109 120.821C379.387 123.229 386.25 122 391 122C391 126.75 389.771 133.614 392.179 137.891C395.186 143.232 403.152 142.662 405.397 136.956C407.076 132.687 406 126.531 406 122C410.801 122 417.595 123.201 421.941 120.821C426.411 118.373 427.668 110.879 422.852 108.028C418.611 105.517 410.785 107 406 107C406 102.215 407.483 94.3892 404.972 90.1481C402.439 85.8706 394.729 86.0584 392.179 90.2284C389.567 94.4997 391 102.169 391 107z"/>
<path style="fill:#e9b5ca; stroke:none;" d="M406 92L406 107L421 107L421 106L407 106L406 92z"/>
<path style="fill:#aac0d0; stroke:none;" d="M40.3333 95.6667L40.6667 96.3333L40.3333 95.6667z"/>
<path style="fill:#e9b5ca; stroke:none;" d="M376 106L376 107L391 107L376 106z"/>
<path style="fill:#ef95ab; stroke:none;" d="M426 112L426 116L427 116L426 112z"/>
<path style="fill:#a9bfcf; stroke:none;" d="M60.3333 121.667L60.6667 122.333L60.3333 121.667z"/>
<path style="fill:#ee96ac; stroke:none;" d="M406 122L406 136L407 136L406 122z"/>
<path style="fill:#8eabc0; stroke:none;" d="M59 127L59 134L60 134L59 127z"/>
<path style="fill:#986a88; stroke:none;" d="M338 127L338 132L339 132L338 127z"/>
<path style="fill:#c49790; stroke:none;" d="M117 131L117 132L132 132L117 131z"/>
<path style="fill:#e09380; stroke:none;" d="M258 132L258 133C279.064 139.257 278.107 167.692 275.41 185C268.51 229.269 255.695 269.768 217 297L217 298C241.336 296.012 264.654 279.499 278.279 260C282.601 253.814 286.689 237.907 292.43 234.028C295.739 231.792 302.192 233 306 233C316.354 233 326.378 232.806 333.468 223.96C343.203 211.812 340.007 192.344 326 184.985C318.505 181.048 310.189 182 302 182C302 163.102 304.39 134.265 279 131.184C272.049 130.341 264.888 131.13 258 132z"/>
<path style="fill:#faa68e; stroke:none;" d="M219 299L219 298L217 297C225.379 293.094 231.963 284.738 238.075 278C262.221 251.378 269.42 222.576 275.08 188C277.628 172.436 280.131 148.986 266.957 137.214C257.1 128.407 239.283 136.355 228 138.79C211.214 142.413 197.118 144.974 180 141.551C159.745 137.501 133.773 126.39 113 132.803C102.259 136.119 98.0608 146.872 96.8449 157C94.5771 175.891 97.6618 195.603 102.13 214C112.64 257.276 136.477 291.221 183 299.385C194.906 301.474 207.087 299.099 219 299z"/>
<path style="fill:#cfdbe4; stroke:none;" d="M58 136L58 150L59 150L58 136z"/>
<path style="fill:#9d8b91; stroke:none;" d="M238.667 136.333L239.333 136.667L238.667 136.333z"/>
<path style="fill:#978991; stroke:none;" d="M192 143L192 144L205 144L192 143z"/>
<path style="fill:#cedae3; stroke:none;" d="M59 156L59 162L60 162L59 156z"/>
<path style="fill:#ac8f90; stroke:none;" d="M96 156L96 160L97 160L96 156z"/>
<path style="fill:#ffffff; stroke:none;" d="M338 156C338 166.896 332.593 177.615 332.745 188C332.809 192.342 336.519 195.995 337.892 200C340.555 207.768 338.449 216.62 333.468 222.985C327.399 230.74 317.553 233.882 308 233.996C303.496 234.05 296.448 232.641 292.302 234.603C288.998 236.168 288.12 241.96 286.68 245C282.654 253.498 275.618 260.441 272 269C284.031 265.818 300.896 272.469 297.312 288C294.78 298.97 281.447 301.788 277.603 311.171C276.309 314.329 277 318.656 277 322C277 331.778 275.862 351.93 284.56 358.861C291.329 364.254 309.45 368.529 318 370C320.579 352.783 335.463 338.911 352 334.9C364.775 331.801 376.48 334.306 384.521 321C391.884 308.816 389 291.63 389 278L389 186C366.141 181.693 355.532 169.408 338 156z"/>
<path style="fill:#b2c6d4; stroke:none;" d="M337 163L337 168L338 168L337 163z"/>
<path style="fill:#8fabc0; stroke:none;" d="M60 164L60 167L61 167L60 164M61 170L61 173L62 173L61 170z"/>
<path style="fill:#9ab4c6; stroke:none;" d="M336 170L336 173L337 173L336 170z"/>
<path style="fill:#93afc3; stroke:none;" d="M62 175L62 178L63 178L62 175z"/>
<path style="fill:#9eb7c8; stroke:none;" d="M335 175L335 178L336 178L335 175z"/>
<path style="fill:#a58d90; stroke:none;" d="M96 176L96 182L97 182L96 176z"/>
<path style="fill:#b3c7d5; stroke:none;" d="M63.3333 180.667L63.6667 181.333L63.3333 180.667z"/>
<path style="fill:#bccdda; stroke:none;" d="M334.333 180.667L334.667 181.333L334.333 180.667z"/>
<path style="fill:#e09380; stroke:none;" d="M107 233L97 182C88.211 182 78.8436 180.725 71.0008 185.479C55.9065 194.629 54.6704 217.668 69.0147 228.211C79.4113 235.853 94.7739 233 107 233z"/>
<path style="fill:#becfda; stroke:none;" d="M64.3333 184.667L64.6667 185.333L64.3333 184.667z"/>
<path style="fill:#365f7e; stroke:none;" d="M150.059 185.029C141.216 189.805 146.849 209.628 157.772 202.972C165.302 198.383 160.329 179.481 150.059 185.029M241.059 185.032C232.833 189.411 236.685 208.266 247.786 203.258C256.433 199.357 251.5 179.472 241.059 185.032z"/>
<path style="fill:#fbb5c1; stroke:none;" d="M411.667 185.333L412.333 185.667L411.667 185.333z"/>
<path style="fill:#fcbcc7; stroke:none;" d="M404 187L404 311L405 311L405 225C405 214.104 408.208 197.027 404 187z"/>
<path style="fill:#ad8a87; stroke:none;" d="M161 190L161 199L162 199L161 190z"/>
<path style="fill:#a78887; stroke:none;" d="M236 190L236 199L237 199L236 190z"/>
<path style="fill:#897d85; stroke:none;" d="M151 204L151 205L156 205L151 204z"/>
<path style="fill:#887d85; stroke:none;" d="M242 204L242 205L246 205L242 204z"/>
<path style="fill:#f7e2dd; stroke:none;" d="M81 233L81 234L107 234L81 233M291 233L291 234L315 234L291 233z"/>
<path style="fill:#d47f6c; stroke:none;" d="M173.059 240.029C163.546 245.189 172.848 253.422 179 255.279C191.337 259.002 214.806 260.894 225.772 252.272C230.704 248.395 229.04 240.833 222.995 239.319C212.686 236.735 200.279 243.529 189 241.536C184.183 240.685 177.793 237.461 173.059 240.029z"/>
<path style="fill:#ddebfd; stroke:none;" d="M121 327L122 327L122 311C152.805 334.505 192.939 338.783 230 331.829C244.764 329.059 273.095 319.598 263.583 299.004C260.095 291.453 250.979 287.234 243 289.965C215.538 299.365 188.907 305.26 161 292.688C145.851 285.864 122.739 257.253 106.185 271.684C87.6628 287.83 113.564 299.171 119.972 311.09C122.267 315.357 121 322.283 121 327z"/>
<path style="fill:#bed9fd; stroke:none;" d="M246 288L246 289C267.921 290.793 265.409 307.652 258 322L276 312L276 327C278.177 321.811 275.17 315.022 278.603 310.289C284.211 302.56 294.862 299.163 297.316 289C300.292 276.675 288.656 264.262 276 267.614C265.372 270.429 255.463 282.187 246 288z"/>
<path style="fill:#5392f9; stroke:none;" d="M122 311C122 322.007 122.29 333.214 119.66 344C117.446 353.083 111.822 361.711 117.228 371C122.146 379.449 131.478 384.224 140 388.218C162.684 398.852 194.327 402.247 219 398.246C227.167 396.922 243.181 396.734 248.64 389.853C258.443 377.496 252.784 367.254 249.598 354C247.565 345.542 247.006 335.681 247 327C233.478 328.99 220.881 333.96 207 334.91C174.865 337.111 149.437 326.217 122 311z"/>
<path style="fill:#4071f7; stroke:none;" d="M247 392C261.052 389.895 283.168 378.2 283.736 362C283.945 356.029 280.278 350.695 279.015 345C276.557 333.909 276 323.309 276 312C268.938 314.586 262.924 319.431 256 322.421C253.354 323.563 248.973 324.609 247.603 327.418C241.505 339.928 253.44 359.652 254.659 372C255.385 379.354 250.362 385.937 247 392z"/>
<path style="fill:#fcaab8; stroke:none;" d="M403 313L403 316L404 316L403 313z"/>
<path style="fill:#a0c3fc; stroke:none;" d="M121 327L121 332L122 332L121 327z"/>
<path style="fill:#759df9; stroke:none;" d="M276 327L276 332L277 332L276 327z"/>
<path style="fill:#a2c5fb; stroke:none;" d="M182 334L182 335L189 335L182 334z"/>
<path style="fill:#aac9fc; stroke:none;" d="M119 343L119 346L120 346L119 343z"/>
<path style="fill:#fca7b5; stroke:none;" d="M356 349L356 350L364 350L356 349z"/>
<path style="fill:#8db8fb; stroke:none;" d="M114 358L114 364L115 364L114 358z"/>
<path style="fill:#ddebfd; stroke:none;" d="M48 512L98 512C98 495.36 96.9989 478.701 97 462C97.0003 456.649 96.496 447.359 104.004 446.662C111.079 446.006 112.932 454.819 112.996 460C113.211 477.387 113.256 494.67 114 512L191 512L191 399C166.54 399 116.672 389.606 114 359C95.3262 363.281 68.1262 370.895 55.3287 386.015C48.0486 394.616 47.0735 406.348 45.4097 417C40.4522 448.741 48 480.343 48 512z"/>
<path style="fill:#bed9fd; stroke:none;" d="M284 359C283.349 366.964 279.986 372.763 274 378C286.518 385.915 302.129 387.597 312.699 399.09C320.181 407.225 321.761 417.56 323.438 428C327.937 456.008 321 483.93 321 512L350 512C350 481.19 356.482 450.971 353.166 420C351.953 408.667 350.598 394.994 342.787 386.015C329.154 370.342 303.174 364.441 284 359z"/>
<path style="fill:#ddebfd; stroke:none;" d="M207 399L207 512L284 512C284.143 494.664 285.992 477.398 286 460C286.002 454.971 286.489 445.842 293.996 446.742C301.487 447.641 301 456.544 301 462C301.001 478.719 300 495.279 300 512L321 512C321 470.589 341.622 409.68 295 386.756C289.632 384.117 282.079 379.668 276 379.473C269.069 379.251 259.629 387.624 253 390.189C239.061 395.584 221.946 398.99 207 399z"/>
<path style="fill:#9bc1fb; stroke:none;" d="M179 398L179 399L185 399L179 398z"/>
<path style="fill:#9bc2fc; stroke:none;" d="M191 399L191 400L207 400L191 399z"/>
<path style="fill:#bed9fd; stroke:none;" d="M191 400L191 512L207 512L207 400L191 400z"/>
<path style="fill:#f9637c; stroke:none;" d="M231.019 434.029C221.06 439.179 229.943 452.577 238.956 447.82C248.921 442.561 240.003 429.383 231.019 434.029z"/>
<path style="fill:#bed9fd; stroke:none;" d="M98 512L114 512C113.63 494.065 113.463 475.981 112.985 458C112.838 452.456 110.096 444.935 103.015 446.478C95.6207 448.089 97 457.37 97 463C97 479.363 98 495.7 98 512M284 512L300 512C300 495.613 301 479.387 301 463C301 457.264 302.352 448.366 294.985 446.558C286.88 444.568 286.003 453.464 286 459C285.992 476.724 284.049 494.336 284 512z"/>
<path style="fill:#eaabc1; stroke:none;" d="M232 472L232 473L238 473L232 472z"/>
<path style="fill:#f9637c; stroke:none;" d="M230.148 474.028C221.295 479.269 231.104 491.597 239.811 486.682C249.649 481.129 238.745 468.938 230.148 474.028z"/>
<path style="fill:#f091a7; stroke:none;" d="M226 478L226 482L227 482L226 478z"/>
</svg>
